<svg xmlns="http://www.w3.org/2000/svg" viewBox="0 0 2048 512" role="img" aria-labelledby="title">
  <title id="title">Coscharis Group</title>
  <defs>
    <style>
      .red{fill:none;stroke:#ef3340;stroke-width:24;stroke-linecap:square;stroke-linejoin:miter}
      .blue{fill:none;stroke:#34368b;stroke-width:22;stroke-linecap:square}
      .word{fill:#34368b;font-family:Arial,Helvetica,sans-serif;font-size:132px;font-weight:800;letter-spacing:6px}
    </style>
  </defs>
  <g transform="translate(14 28)">
    <path class="red" d="M95 224 380 58 665 224 380 390 95 224Z"/>
    <path class="red" d="M150 224 380 92 610 224 380 356 150 224Z"/>
    <path class="red" d="M18 224h94M72 176l92 54M72 272l92-54"/>
    <path class="red" d="M648 224h94M600 176l92 54M600 272l92-54"/>
    <path class="red" d="M333 56 424 4M424 56 333 4"/>
    <path class="red" d="M333 400 424 452M424 400 333 452"/>
    <path class="blue" d="M456 186a100 100 0 1 0 0 112"/>
    <path class="red" d="M456 224a58 58 0 1 0 0 74"/>
    <path class="red" d="M392 256h82"/>
  </g>
  <text class="word" x="820" y="318">COSCHARIS GROUP</text>
</svg>
