<svg version="1.1" id="Layer_1" xmlns="http://www.w3.org/2000/svg" xmlns:xlink="http://www.w3.org/1999/xlink" x="0px" y="0px"
	 width="100%" viewBox="0 0 2100 525" enable-background="new 0 0 2100 525" xml:space="preserve">
<path fill="#FEFEFE" opacity="1.000000" stroke="none" 
	d="
M2101.000000,296.000000 
	C2101.000000,372.660675 2101.000000,449.321381 2101.000000,525.986572 
	C1401.060547,525.991028 701.121094,525.991028 1.090827,525.991028 
	C1.090827,351.074249 1.090827,176.148407 1.090827,1.111292 
	C701.000000,1.111292 1401.000000,1.111292 2101.000000,1.112473 
	C2101.000000,89.773354 2101.000000,178.433044 2100.657471,267.442902 
	C2099.310303,265.761963 2098.305664,263.730865 2097.258789,261.511292 
	C2097.216553,261.322845 2097.010986,260.995911 2097.043945,260.692505 
	C2096.620117,259.847504 2096.162842,259.305939 2095.533691,258.448242 
	C2094.333252,257.134277 2093.305420,256.136444 2092.355957,255.002197 
	C2092.434326,254.865768 2092.173584,254.693054 2092.173584,254.693054 
	C2092.173584,254.693054 2091.988037,254.946030 2091.726562,254.713074 
	C2091.060547,254.249817 2090.656006,254.019501 2090.097168,253.482178 
	C2086.958496,252.429596 2083.974365,251.684021 2080.671875,250.860474 
	C2079.699951,250.728973 2079.046387,250.675461 2078.175293,250.360657 
	C2075.953857,250.046448 2073.950439,249.993546 2071.483398,249.894150 
	C2056.055420,249.846527 2041.090820,249.845398 2025.871094,249.726593 
	C2025.229980,250.417831 2024.843872,251.226730 2024.424683,252.499725 
	C2024.425659,283.632080 2024.459717,314.300323 2024.331787,345.238831 
	C2024.442993,346.009369 2024.715942,346.509705 2025.354736,347.231049 
	C2031.209473,347.381775 2036.698486,347.311462 2042.549438,347.091156 
	C2043.126709,340.705048 2043.474976,334.470062 2043.528931,328.232544 
	C2043.629028,316.632782 2043.558716,316.733856 2055.308105,316.593536 
	C2062.191650,316.511322 2069.070801,316.043304 2076.314453,315.771149 
	C2078.111328,315.583862 2079.545898,315.374237 2081.167969,315.325287 
	C2082.060791,315.159821 2082.765381,314.833679 2083.728027,314.487610 
	C2084.316895,314.372650 2084.647705,314.277649 2085.172363,314.336609 
	C2086.025391,314.094452 2086.684814,313.698273 2087.525879,313.281128 
	C2087.707520,313.260162 2088.037598,313.102997 2088.359619,313.137024 
	C2089.341309,312.714233 2090.000732,312.257416 2090.998047,311.660461 
	C2091.879395,311.038849 2092.423340,310.557312 2093.061279,310.197021 
	C2093.155273,310.318237 2093.382080,310.113892 2093.382080,310.113892 
	C2093.382080,310.113892 2093.189941,309.875214 2093.393066,309.739563 
	C2093.595947,309.603912 2093.884033,309.209869 2094.015625,309.294922 
	C2094.147217,309.379944 2094.366943,309.159180 2094.366943,309.159180 
	C2094.366943,309.159180 2094.188721,308.902863 2094.454590,308.681488 
	C2095.092041,307.881226 2095.463867,307.302368 2096.132812,306.599365 
	C2096.698975,305.683685 2096.967773,304.892120 2097.320312,303.937012 
	C2097.404053,303.773499 2097.449219,303.408813 2097.670898,303.245392 
	C2097.954102,302.732422 2098.015625,302.382874 2098.190918,301.785828 
	C2098.377197,301.183167 2098.449707,300.828033 2098.735840,300.331116 
	C2099.042725,299.448730 2099.136475,298.708099 2099.317383,297.720459 
	C2099.445801,297.130432 2099.487061,296.787445 2099.775635,296.329224 
	C2100.348633,296.142639 2100.674316,296.071320 2101.000000,296.000000 
M610.581726,254.023102 
	C592.449463,243.810043 574.313599,233.603333 556.185669,223.382675 
	C508.046967,196.241806 459.892853,169.128113 411.812256,141.884720 
	C408.135345,139.801315 405.388947,139.433746 401.415497,141.682800 
	C325.365662,184.728455 249.205826,227.579712 173.073120,270.478973 
	C162.667053,276.342560 152.284317,282.247559 141.370651,288.427948 
	C142.743179,289.481354 143.545639,290.257416 144.484680,290.794861 
	C180.023193,311.135529 215.573990,331.454742 251.123734,351.775818 
	C301.558655,380.605560 352.015045,409.398041 402.377655,438.353546 
	C405.424835,440.105469 407.571838,440.103851 410.495300,438.413239 
	C429.657867,427.331909 448.912964,416.410675 468.130005,405.423492 
	C530.113403,369.984833 592.095215,334.543335 654.071960,299.092896 
	C659.793335,295.820282 665.474060,292.476501 672.026428,288.670471 
	C651.136963,276.886261 631.180908,265.628662 610.581726,254.023102 
M520.761597,421.147430 
	C533.439392,413.805817 546.111572,406.454651 558.795959,399.124390 
	C601.313354,374.553650 643.853333,350.021851 686.317993,325.360291 
	C689.470215,323.529602 691.795959,323.552032 694.948486,325.418762 
	C711.135010,335.003601 727.464050,344.348663 743.786316,353.702393 
	C745.136169,354.475983 747.269104,355.553741 748.254089,355.026184 
	C755.361816,351.219391 762.267273,347.035004 769.979492,342.537201 
	C767.795837,341.143066 766.457336,340.240448 765.074097,339.412628 
	C743.642578,326.587189 722.129028,313.895782 700.833435,300.848663 
	C696.574768,298.239471 693.457581,298.156982 689.104187,300.657898 
	C608.279480,347.089935 527.358215,393.353912 446.463043,439.663269 
	C440.783661,442.914520 435.148499,446.243042 429.310333,449.641815 
	C430.137665,450.574280 430.390259,451.053101 430.786865,451.278259 
	C454.523743,464.754669 478.267395,478.219208 502.034271,491.642578 
	C503.303040,492.359161 505.227203,493.555695 506.083832,493.098938 
	C512.245728,489.813385 518.210449,486.158142 524.944885,482.205048 
	C506.339203,471.109436 488.994293,460.765686 470.832306,449.934662 
	C487.917236,440.084808 504.020905,430.800690 520.761597,421.147430 
M128.461380,334.898621 
	C198.731079,375.659790 269.000793,416.420959 339.671875,457.414948 
	C322.333008,467.544739 305.321381,477.483398 287.546509,487.867950 
	C293.261047,491.799530 298.184937,495.099274 303.007111,498.541595 
	C305.443054,500.280457 307.455139,500.433533 310.217682,498.779297 
	C325.499329,489.628632 340.935516,480.736298 356.300018,471.723480 
	C364.137085,467.126251 371.934937,462.462189 380.204956,457.558899 
	C378.735626,456.533997 377.854156,455.822235 376.886536,455.258240 
	C345.242462,436.814056 313.592010,418.380890 281.938538,399.952881 
	C229.422226,369.378906 176.876709,338.854889 124.442093,308.141510 
	C120.763916,305.987030 118.159828,305.978760 114.542343,308.084625 
	C94.547340,319.724426 74.398232,331.099396 54.311619,342.582092 
	C50.922485,344.519531 47.580570,346.539581 43.439285,348.979553 
	C48.403839,352.439026 52.883301,355.023590 56.696503,358.367828 
	C60.553116,361.750122 63.639793,361.254669 67.755684,358.829712 
	C81.952995,350.465088 96.601097,342.846008 110.597351,334.168518 
	C116.980728,330.210876 122.176697,329.419800 128.461380,334.898621 
M576.137939,208.232498 
	C614.689941,230.006012 653.273804,251.723755 691.738586,273.650269 
	C695.117920,275.576630 697.442871,275.586975 700.747253,273.657684 
	C715.116882,265.267822 729.679382,257.209076 744.141235,248.976166 
	C750.845337,245.159592 757.479248,241.219818 764.910339,236.889969 
	C758.648071,232.784470 753.168274,229.382584 747.910828,225.666122 
	C745.212952,223.759064 743.133972,223.787247 740.316223,225.569061 
	C727.514282,233.664322 714.398621,241.273361 701.750244,249.596085 
	C697.134949,252.633011 693.790771,252.383255 689.202332,249.738815 
	C622.718994,211.422958 556.132629,173.285843 489.579132,135.091660 
	C484.168243,131.986435 478.817200,128.776978 472.592987,125.119125 
	C488.300079,115.929222 503.104004,107.267731 518.709290,98.137375 
	C512.384338,94.072624 507.091888,90.384674 501.489471,87.250862 
	C499.870972,86.345528 496.914215,86.230896 495.330597,87.114746 
	C480.798767,95.225410 466.434113,103.635590 452.021057,111.959068 
	C444.740143,116.163788 437.459900,120.369690 429.101562,125.197601 
	C478.536835,153.124466 527.011169,180.508484 576.137939,208.232498 
M191.915649,235.305878 
	C255.349411,199.245163 318.783173,163.184433 382.245300,127.107597 
	C381.658569,126.149902 381.555725,125.758904 381.307098,125.607903 
	C360.252502,112.820580 339.197937,100.033073 318.083588,87.345039 
	C317.162903,86.791779 315.236481,86.617447 314.540283,87.191071 
	C309.209473,91.583435 304.067657,96.205223 298.391602,101.171753 
	C312.249023,109.762260 325.408478,117.920082 339.491455,126.650436 
	C330.736145,131.594330 323.089264,135.902634 315.451355,140.226822 
	C250.423004,177.042633 185.382904,213.837753 120.411064,250.753036 
	C117.357780,252.487808 115.100380,252.403137 112.206444,250.675461 
	C101.349907,244.194153 90.411148,237.847107 79.402214,231.628525 
	C77.877022,230.766983 75.299034,230.033340 74.039841,230.734222 
	C68.277153,233.941788 62.810547,237.681274 56.840328,241.482651 
	C57.986904,242.384186 58.561527,242.972198 59.249702,243.357315 
	C78.275284,254.003998 97.278831,264.691559 116.413277,275.139313 
	C117.893517,275.947540 120.679306,275.711182 122.230469,274.841095 
	C145.307922,261.896637 168.279388,248.763214 191.915649,235.305878 
M1414.286011,334.475922 
	C1414.277466,329.479095 1414.385986,324.478271 1414.216064,319.486908 
	C1414.115723,316.535950 1415.059326,315.292358 1418.178589,315.360596 
	C1426.003296,315.531769 1433.837769,315.291229 1441.660645,315.502350 
	C1450.113525,315.730499 1453.373047,318.780884 1454.027954,327.289673 
	C1454.461548,332.922668 1454.121704,338.612457 1454.443237,344.258911 
	C1454.511963,345.467834 1455.880615,347.557495 1456.748535,347.609680 
	C1461.995361,347.925201 1467.270508,347.766724 1472.940063,347.766724 
	C1472.940063,340.684509 1472.988037,334.382599 1472.928711,328.081696 
	C1472.840698,318.732117 1471.045654,310.371155 1460.433960,307.322205 
	C1460.205322,307.256500 1460.090576,306.794678 1459.743896,306.222839 
	C1465.110229,304.405029 1470.092041,301.812775 1471.657959,295.972260 
	C1474.596680,285.011841 1475.127686,273.896515 1471.331909,263.030029 
	C1467.699951,252.632507 1458.562134,250.286697 1449.163818,250.004120 
	C1431.859863,249.483856 1414.530884,249.785400 1397.212402,249.778702 
	C1396.775635,249.778534 1396.338745,250.177567 1395.624268,250.525696 
	C1395.624268,260.092804 1395.624268,269.731354 1395.624268,279.369873 
	C1395.624268,300.523071 1395.607666,321.676300 1395.649414,342.829407 
	C1395.653687,344.986237 1394.813354,347.833252 1398.663452,347.800568 
	C1403.628662,347.758392 1408.594482,347.790314 1414.284058,347.790314 
	C1414.284058,343.362732 1414.284058,339.412842 1414.286011,334.475922 
M1823.881104,274.665680 
	C1823.068604,258.276154 1816.718140,251.582916 1800.412720,249.987106 
	C1798.427002,249.792740 1796.423462,249.700836 1794.427979,249.696533 
	C1779.934082,249.665237 1765.440063,249.661087 1750.946167,249.672577 
	C1749.485962,249.673737 1748.025635,249.835678 1746.055054,249.953537 
	C1746.055054,251.914597 1746.054932,253.542206 1746.055054,255.169815 
	C1746.058350,281.325592 1746.063599,307.481384 1746.064453,333.637177 
	C1746.064941,348.097198 1746.060547,347.966003 1760.359253,347.860748 
	C1764.037964,347.833679 1764.848022,346.481873 1764.770630,343.161652 
	C1764.584106,335.169220 1764.759033,327.168915 1764.655273,319.173553 
	C1764.624390,316.797913 1765.089966,315.352753 1767.864014,315.394592 
	C1776.523315,315.525330 1785.195435,315.302582 1793.841064,315.692230 
	C1800.412109,315.988403 1803.584717,319.139862 1804.117188,325.679108 
	C1804.616211,331.807770 1804.556519,337.986511 1804.612427,344.144379 
	C1804.634155,346.542572 1805.245483,347.916412 1807.996216,347.818481 
	C1811.989502,347.676331 1815.994019,347.692108 1819.988892,347.808380 
	C1822.626709,347.885132 1823.506470,346.716553 1823.436890,344.205383 
	C1823.261963,337.881012 1823.286499,331.551117 1823.114990,325.226593 
	C1822.877075,316.448547 1819.640381,309.707794 1810.458374,307.145172 
	C1810.291382,307.098572 1810.241943,306.631531 1809.977173,305.943634 
	C1819.148071,304.121063 1822.757690,297.599091 1823.549316,289.099976 
	C1823.965088,284.634796 1823.819946,280.117340 1823.881104,274.665680 
M1695.439209,348.537659 
	C1702.216309,347.849579 1709.080566,347.618683 1715.747070,346.349640 
	C1722.949951,344.978485 1728.941895,341.088013 1731.153687,333.648285 
	C1734.815308,321.332214 1733.179321,308.678741 1733.470703,295.675598 
	C1719.617065,295.675598 1706.497803,295.630646 1693.380859,295.777496 
	C1692.511353,295.787231 1690.975952,297.207214 1690.914795,298.055145 
	C1690.643555,301.819031 1690.797241,305.613556 1690.797241,309.953430 
	C1698.961548,309.953430 1706.542114,309.953430 1714.678711,309.953430 
	C1714.678711,312.947388 1714.807739,315.391113 1714.656494,317.817383 
	C1713.976562,328.727509 1710.259766,332.326416 1699.352173,332.435516 
	C1693.527344,332.493805 1687.687988,332.427490 1681.875610,332.078308 
	C1674.497681,331.635101 1670.034180,328.574188 1669.791870,321.906952 
	C1669.225586,306.320862 1669.447998,290.694824 1669.777954,275.093994 
	C1669.884033,270.079956 1673.305664,266.417114 1678.359497,266.180542 
	C1687.784424,265.739410 1697.252075,265.890259 1706.689453,266.186646 
	C1710.531616,266.307312 1713.767212,268.984955 1713.885254,272.709625 
	C1714.109985,279.807037 1718.192993,280.045593 1723.433960,279.497925 
	C1725.573730,279.274323 1727.823486,279.806366 1729.899780,279.385895 
	C1731.102295,279.142365 1732.849609,277.806946 1733.007324,276.760162 
	C1735.019287,263.423889 1727.273438,251.899368 1714.331665,249.893311 
	C1699.765503,247.635468 1685.105957,247.998962 1670.618530,250.955551 
	C1661.080078,252.902145 1654.981445,258.967957 1652.382324,268.180176 
	C1651.085083,272.778107 1650.364502,277.661865 1650.230225,282.440125 
	C1649.912476,293.755493 1649.965820,305.087433 1650.158813,316.407715 
	C1650.226440,320.367462 1650.784058,324.401794 1651.740112,328.247406 
	C1654.265381,338.404602 1660.731934,345.021240 1671.121582,346.674011 
	C1678.808228,347.896820 1686.679688,347.958740 1695.439209,348.537659 
M1898.328491,251.135971 
	C1884.495605,248.005753 1870.567993,247.986786 1856.621216,250.097992 
	C1846.193481,251.676468 1838.938110,257.176178 1837.218384,268.005737 
	C1834.040283,288.019897 1833.898804,308.174530 1837.105835,328.145752 
	C1839.014282,340.030151 1846.492676,346.489624 1858.733521,347.467987 
	C1868.973877,348.286469 1879.374878,348.349121 1889.619141,347.591003 
	C1907.499634,346.267883 1915.883423,337.045166 1916.447998,319.133392 
	C1916.720703,310.479614 1916.722778,301.808167 1916.531982,293.151642 
	C1916.359863,285.345337 1916.318726,277.467102 1915.201294,269.768433 
	C1913.855225,260.493927 1908.472778,253.990326 1898.328491,251.135971 
M1029.718506,325.034760 
	C1031.024170,338.576630 1036.209351,345.615479 1047.762329,347.350494 
	C1061.983154,349.486206 1076.331543,349.386017 1090.541504,346.713501 
	C1097.728027,345.361877 1102.901001,341.018494 1104.569702,334.020264 
	C1106.090698,327.641571 1106.795410,320.919647 1106.775879,314.352234 
	C1106.731445,299.475830 1101.728638,294.085022 1087.041260,291.772247 
	C1085.398315,291.513519 1083.734009,291.379669 1082.075439,291.234406 
	C1073.946655,290.522491 1065.799072,289.982025 1057.691895,289.078583 
	C1050.288330,288.253540 1048.394775,285.477325 1048.418579,276.497589 
	C1048.438721,268.882965 1050.875122,265.644379 1057.918335,265.041748 
	C1063.713867,264.545837 1069.573608,264.537109 1075.396118,264.677795 
	C1084.224609,264.891083 1085.400879,266.268066 1086.510742,275.145508 
	C1086.670776,276.426056 1088.309082,278.425690 1089.406128,278.525604 
	C1093.702393,278.916870 1098.062988,278.808258 1102.382202,278.570618 
	C1103.275269,278.521515 1104.682617,277.237457 1104.857666,276.330322 
	C1107.110107,264.667145 1100.224854,252.686554 1088.939331,250.420883 
	C1074.287964,247.479492 1059.438599,247.655243 1044.814819,251.223694 
	C1037.492554,253.010498 1032.866699,257.938812 1031.490601,265.255981 
	C1030.515137,270.443268 1030.017212,275.839722 1030.223389,281.106903 
	C1030.780640,295.338867 1037.229980,302.520508 1051.385620,304.393005 
	C1060.116211,305.547913 1068.975098,305.728821 1077.775757,306.357239 
	C1085.540527,306.911682 1088.069458,309.491089 1088.349365,317.280518 
	C1088.420898,319.271240 1088.369873,321.292511 1088.107666,323.264160 
	C1087.350952,328.953461 1084.948242,331.745209 1079.190430,332.322113 
	C1073.087891,332.933563 1066.886719,333.183533 1060.767090,332.860718 
	C1050.285645,332.307831 1048.642456,330.362915 1047.643677,319.979462 
	C1047.530273,318.801361 1046.443237,316.784363 1045.723633,316.746277 
	C1040.466431,316.468109 1035.187744,316.596436 1029.631836,316.596436 
	C1029.631836,319.580200 1029.631836,321.874084 1029.718506,325.034760 
M1575.883057,271.155548 
	C1575.984497,271.981659 1576.282837,272.839783 1576.154663,273.628632 
	C1575.437256,278.047089 1577.567017,279.115601 1581.550049,278.760773 
	C1584.856567,278.466248 1588.234619,278.929993 1591.530518,278.581543 
	C1592.694458,278.458496 1594.530884,277.037506 1594.668823,276.020477 
	C1596.603760,261.748474 1588.422241,250.925995 1574.029785,249.563950 
	C1565.281006,248.736008 1556.370728,248.635818 1547.599487,249.215942 
	C1525.379395,250.685562 1519.034546,258.121399 1519.970703,280.408051 
	C1520.593384,295.234924 1526.869263,302.567230 1541.480713,304.447266 
	C1550.218384,305.571533 1559.080200,305.710907 1567.878662,306.389496 
	C1575.227905,306.956268 1577.569336,309.326569 1578.101318,316.641632 
	C1578.233398,318.457489 1578.160522,320.314423 1577.947021,322.124756 
	C1577.089844,329.391907 1574.833740,331.831268 1567.615234,332.604218 
	C1563.161133,333.081146 1558.635742,333.220703 1554.156738,333.073486 
	C1540.361328,332.620148 1537.631104,331.390289 1537.209595,317.670868 
	C1537.205444,317.534485 1537.038452,317.403137 1536.710083,316.920105 
	C1531.236694,316.920105 1525.525635,316.920105 1519.240479,316.920105 
	C1519.433228,320.906738 1519.445801,324.535950 1519.812988,328.128937 
	C1520.864502,338.415222 1526.557617,345.465790 1536.693726,347.152252 
	C1551.396729,349.598511 1566.229126,349.408112 1580.928711,346.540833 
	C1587.132935,345.330658 1591.963623,341.693878 1593.643433,335.748322 
	C1595.422363,329.451599 1596.621704,322.739105 1596.559692,316.222595 
	C1596.388062,298.165375 1591.254517,293.025879 1573.239868,291.318268 
	C1564.452271,290.485321 1555.628662,289.976105 1546.869019,288.923431 
	C1539.930664,288.089630 1538.087646,285.112152 1538.104370,276.343262 
	C1538.118164,269.113373 1540.315674,265.803741 1546.828857,265.273682 
	C1554.107178,264.681305 1561.463501,264.828766 1568.778076,264.996002 
	C1572.090088,265.071747 1574.970093,266.501343 1575.883057,271.155548 
M950.225891,253.655289 
	C944.292114,257.213440 940.967773,262.984283 940.777771,269.350037 
	C940.203613,288.595978 939.611694,307.924408 940.806030,327.109924 
	C941.557922,339.188019 949.487244,346.371765 961.490173,347.224548 
	C974.015564,348.114471 986.772949,347.849060 999.262573,346.522461 
	C1011.118042,345.263214 1019.134399,336.619904 1019.662109,324.668640 
	C1020.424805,307.398285 1020.413147,290.036743 1019.568115,272.771088 
	C1018.939453,259.926971 1011.364075,252.760849 998.587646,250.409363 
	C994.663330,249.687119 990.673279,249.014099 986.699768,248.924500 
	C974.564758,248.650909 962.328308,247.902618 950.225891,253.655289 
M1226.330200,332.490601 
	C1226.334595,325.495270 1226.575806,318.489105 1226.255981,311.508606 
	C1226.059692,307.226959 1227.219604,305.639709 1231.765503,305.773560 
	C1242.583130,306.092102 1253.416016,305.884064 1264.242798,305.885315 
	C1270.977539,305.886078 1270.951660,305.883179 1270.938843,312.759399 
	C1270.917480,324.207825 1270.932983,335.656311 1270.932983,347.758118 
	C1275.929443,347.758118 1280.386353,347.543823 1284.811523,347.825836 
	C1288.362061,348.052094 1289.448486,346.777283 1289.385376,343.296326 
	C1289.203613,333.305634 1289.320801,323.309479 1289.321655,313.315491 
	C1289.323242,293.660614 1289.375610,274.005371 1289.232300,254.351578 
	C1289.220825,252.783447 1287.961792,249.941055 1287.107422,249.872467 
	C1281.877930,249.452576 1276.597778,249.662338 1270.927002,249.662338 
	C1270.927002,261.899353 1270.813232,273.365204 1270.994019,284.826385 
	C1271.050781,288.419769 1270.124268,289.815277 1266.253052,289.756653 
	C1254.266724,289.575073 1242.273560,289.715485 1230.285034,289.879974 
	C1227.198853,289.922333 1226.241089,288.714172 1226.278442,285.739502 
	C1226.410522,275.247498 1226.361328,264.753082 1226.349854,254.259598 
	C1226.348389,252.841217 1226.170532,251.423035 1226.075684,250.023834 
	C1219.817261,250.023834 1214.073608,250.023834 1208.154053,250.023834 
	C1208.154053,282.615204 1208.154053,314.850220 1208.154053,347.431091 
	C1214.162720,347.431091 1219.900269,347.431091 1226.329712,347.431091 
	C1226.329712,342.704712 1226.329712,338.094635 1226.330200,332.490601 
M1939.861938,343.743622 
	C1943.457031,345.000183 1947.027222,347.244507 1950.651611,347.335480 
	C1963.596802,347.660370 1976.632690,348.052277 1989.495605,346.887848 
	C2001.050293,345.841827 2007.417236,338.207031 2008.830811,326.700165 
	C2009.235962,323.403503 2009.421143,320.060211 2009.429810,316.737579 
	C2009.484009,295.908569 2009.509521,275.079010 2009.358643,254.250977 
	C2009.347534,252.714951 2007.978027,249.939331 2007.067627,249.865555 
	C2001.836792,249.441559 1996.554077,249.659149 1990.874634,249.659149 
	C1990.874634,252.062012 1990.878906,253.699890 1990.873657,255.337753 
	C1990.806641,276.665527 1990.807861,297.993866 1990.636353,319.320831 
	C1990.565674,328.114349 1987.449097,331.524445 1978.744141,332.087799 
	C1972.946167,332.463013 1967.084473,332.362427 1961.279663,332.009125 
	C1950.965698,331.381348 1948.187744,328.294739 1948.165405,317.896942 
	C1948.121704,297.567810 1948.158447,277.238525 1948.161743,256.909302 
	C1948.162109,254.642410 1948.161865,252.375519 1948.161865,249.996643 
	C1941.758911,249.996643 1935.846313,249.996643 1930.069702,249.996643 
	C1929.806152,250.636581 1929.574219,250.936752 1929.574097,251.236984 
	C1929.566895,274.397491 1929.405762,297.559998 1929.676514,320.717468 
	C1929.777710,329.364410 1931.698242,337.654724 1939.861938,343.743622 
M1363.970093,273.342560 
	C1361.768677,266.711426 1359.456909,260.113953 1357.417847,253.433258 
	C1356.557495,250.614487 1355.265015,249.430252 1352.132935,249.584702 
	C1346.322266,249.871231 1340.468628,249.929031 1334.667358,249.551697 
	C1330.463257,249.278229 1328.551514,250.647339 1327.243042,254.762344 
	C1318.019287,283.771484 1308.517944,312.692200 1299.119019,341.645691 
	C1298.530396,343.458679 1298.060181,345.310120 1297.356445,347.766418 
	C1303.444702,347.766418 1308.745239,347.940613 1314.017212,347.629395 
	C1315.165039,347.561646 1316.707153,345.958038 1317.210449,344.714722 
	C1318.767578,340.868988 1320.038818,336.891968 1321.170898,332.895050 
	C1321.936035,330.193298 1323.351685,329.272064 1326.190674,329.348328 
	C1333.674683,329.549377 1341.167969,329.369598 1348.657104,329.419678 
	C1353.468872,329.451843 1359.570923,327.872498 1362.737915,330.209442 
	C1366.093994,332.685822 1366.664185,338.941711 1368.439331,343.551514 
	C1368.678223,344.171631 1368.673706,344.983490 1369.085938,345.418121 
	C1369.923950,346.301666 1370.943481,347.609894 1371.934326,347.651703 
	C1377.182983,347.873047 1382.446045,347.755646 1388.643311,347.755646 
	C1380.308105,322.603241 1372.269531,298.346130 1363.970093,273.342560 
M1181.712646,251.668915 
	C1166.264160,247.463821 1150.723022,247.611938 1135.254395,251.243652 
	C1124.359863,253.801483 1118.003784,261.653717 1117.426392,272.224304 
	C1116.448730,290.126831 1116.266968,308.161835 1117.283691,326.054016 
	C1117.996094,338.589661 1125.470703,346.422089 1137.443604,347.295959 
	C1151.115234,348.293854 1165.008789,347.670685 1178.698730,346.499054 
	C1187.985474,345.704254 1193.352783,339.033081 1194.777710,329.836182 
	C1195.487549,325.254303 1195.559814,320.544006 1195.513184,315.895905 
	C1195.501953,314.771332 1193.934448,312.757812 1192.985474,312.698181 
	C1187.895752,312.378418 1182.775269,312.547180 1177.399780,312.547180 
	C1177.252930,315.580170 1177.203979,317.894745 1177.017700,320.198181 
	C1176.348145,328.476196 1172.918945,331.956268 1164.698730,332.161102 
	C1158.712769,332.310242 1152.689697,332.291443 1146.729004,331.796478 
	C1139.367065,331.185181 1135.365234,327.843048 1135.080322,320.495819 
	C1134.513306,305.871948 1134.549561,291.200134 1135.032471,276.571106 
	C1135.252441,269.904266 1138.843506,266.679565 1145.551636,265.901337 
	C1151.474365,265.214142 1157.525879,264.942108 1163.471558,265.299835 
	C1174.248413,265.948242 1175.904663,267.854187 1176.195801,278.772644 
	C1176.276978,281.819702 1177.224854,283.073700 1180.270630,282.732422 
	C1181.587158,282.584900 1182.933960,282.706085 1184.266968,282.705994 
	C1195.173096,282.705292 1195.122681,282.710724 1193.948853,271.594940 
	C1193.069946,263.272827 1190.709595,255.891235 1181.712646,251.668915 
M877.990479,348.439972 
	C887.964783,348.174530 897.987915,348.437103 907.901855,347.519714 
	C922.723083,346.148254 928.277893,340.162476 930.019531,325.359497 
	C931.527649,312.540588 931.527710,312.540588 919.040405,312.543488 
	C918.873840,312.543549 918.707336,312.543365 918.540771,312.543488 
	C911.936829,312.548218 911.936890,312.548248 911.610901,319.316528 
	C911.168030,328.510864 907.806458,331.950928 898.669312,332.179779 
	C893.347351,332.313110 888.007874,332.290741 882.692566,332.019043 
	C874.707397,331.610779 870.184814,328.603241 869.769104,320.911011 
	C868.972168,306.163147 869.009644,291.321442 869.684265,276.563629 
	C870.013855,269.355225 873.485291,266.421234 880.658447,265.834076 
	C888.069519,265.227478 895.588501,265.569794 903.038452,265.938416 
	C907.951904,266.181519 910.308838,269.522949 910.672241,274.270142 
	C910.811768,276.093079 910.444519,278.010742 910.890808,279.734406 
	C911.182678,280.861664 912.478149,282.513397 913.398254,282.563324 
	C918.483521,282.839386 923.591492,282.695435 929.429443,282.695435 
	C928.836121,276.927643 928.597961,271.952576 927.765381,267.079041 
	C926.089661,257.270355 920.595093,251.685730 910.707153,250.112869 
	C898.134460,248.112946 885.480591,247.896835 872.941406,250.445099 
	C859.882690,253.098938 852.389771,260.635406 851.617249,273.909424 
	C850.700256,289.665070 850.324280,305.545349 851.205566,321.288086 
	C852.219727,339.405701 859.137512,345.797760 877.990479,348.439972 
M422.051758,496.328644 
	C434.033447,503.527863 445.998566,510.755035 458.020233,517.886902 
	C459.351501,518.676697 461.508331,519.803467 462.429657,519.278259 
	C468.968323,515.550842 475.284760,511.433502 481.862671,507.321136 
	C480.892456,506.262085 480.630035,505.790894 480.229340,505.564636 
	C456.461182,492.142883 432.658600,478.781799 408.934082,465.283478 
	C406.163208,463.707001 404.120392,464.226410 401.613434,465.712555 
	C379.003265,479.116577 356.328156,492.411011 333.691132,505.769928 
	C331.066620,507.318726 328.557953,509.063873 325.263275,511.190735 
	C332.479828,515.011230 338.664185,518.558716 345.115173,521.526489 
	C346.944519,522.368103 350.018616,522.318420 351.728271,521.319397 
	C365.664642,513.175842 379.936981,505.446014 393.048828,496.104828 
	C403.184357,488.884064 411.896790,486.996460 422.051758,496.328644 
M795.190552,254.426697 
	C791.669434,252.216446 788.048157,250.147781 784.660095,247.749557 
	C782.112793,245.946487 780.112122,246.097046 777.450073,247.738022 
	C763.290405,256.466614 748.988647,264.964294 734.754639,273.572601 
	C725.994690,278.870392 717.268005,284.223175 708.398193,289.629333 
	C709.054382,290.486847 709.266846,290.992737 709.646851,291.228577 
	C732.982239,305.708496 756.323669,320.178925 779.704834,334.584747 
	C780.749573,335.228424 782.487793,335.915771 783.361084,335.484741 
	C790.855408,331.785858 798.224792,327.833740 806.496826,323.504364 
	C787.045105,312.091339 768.657227,301.302490 749.373291,289.987915 
	C767.905396,279.569885 785.312317,269.784424 803.345154,259.647095 
	C800.236328,257.655701 798.020386,256.236267 795.190552,254.426697 
M26.644577,259.208466 
	C23.588341,261.393494 20.532106,263.578552 16.765047,266.271790 
	C31.539289,274.313324 45.546715,281.937500 60.462284,290.055969 
	C40.362968,302.493622 21.272741,314.306854 1.265730,326.687378 
	C7.327796,329.520325 12.373334,331.611176 17.145136,334.205505 
	C20.145018,335.836456 22.471199,335.752045 25.415281,334.022064 
	C44.051350,323.071198 62.794346,312.302307 81.498947,301.467987 
	C87.317490,298.097717 93.126427,294.710876 99.442741,291.039246 
	C97.937660,289.965912 97.199982,289.342163 96.376541,288.867004 
	C78.658424,278.642670 60.743568,268.740479 43.305946,258.059021 
	C37.167942,254.299164 32.370728,253.412186 26.644577,259.208466 
M386.735199,99.632385 
	C392.938843,103.199898 399.031189,106.989273 405.417480,110.192703 
	C407.212067,111.092873 410.315338,111.078735 412.062683,110.114563 
	C428.379425,101.111092 444.538879,91.822136 460.726837,82.585945 
	C465.709320,79.743134 470.639374,76.808403 476.299103,73.503746 
	C470.208954,69.856827 464.871307,66.874153 459.775909,63.523109 
	C457.047333,61.728634 454.973755,61.685928 452.113922,63.418243 
	C439.019562,71.350159 425.683990,78.885452 412.629669,86.880928 
	C409.526764,88.781380 407.424194,88.449768 404.557465,86.722015 
	C391.449371,78.821945 378.233948,71.098984 365.003784,63.404053 
	C363.687286,62.638363 361.567413,61.664787 360.571320,62.195923 
	C354.216736,65.584282 348.072662,69.367432 340.912537,73.577286 
	C356.685760,82.538727 371.395264,90.895805 386.735199,99.632385 
M1488.189453,301.500000 
	C1488.189453,312.485504 1488.189331,323.471039 1488.189331,334.456543 
	C1488.189331,347.842224 1488.192139,347.668732 1501.758911,347.891449 
	C1506.035156,347.961609 1507.027344,346.553925 1507.006592,342.501923 
	C1506.854980,313.041595 1506.931274,283.580139 1506.920288,254.119019 
	C1506.919800,252.821594 1506.771362,251.524246 1506.673828,249.931885 
	C1500.527588,249.931885 1494.630249,249.931885 1488.189575,249.931885 
	C1488.189575,266.971924 1488.189575,283.735962 1488.189453,301.500000 
z"/>
<path fill="#7D7FB9" opacity="1.000000" stroke="none" 
	d="
M2101.000000,295.531342 
	C2100.674316,296.071320 2100.348633,296.142639 2099.617188,295.870026 
	C2100.694092,284.130920 2100.119141,272.851990 2097.301025,261.699768 
	C2098.305664,263.730865 2099.310303,265.761963 2100.657471,267.896545 
	C2101.000000,277.020905 2101.000000,286.041779 2101.000000,295.531342 
z"/>
<path fill="#ED363B" opacity="1.000000" stroke="none" 
	d="
M610.903320,254.197083 
	C631.180908,265.628662 651.136963,276.886261 672.026428,288.670471 
	C665.474060,292.476501 659.793335,295.820282 654.071960,299.092896 
	C592.095215,334.543335 530.113403,369.984833 468.130005,405.423492 
	C448.912964,416.410675 429.657867,427.331909 410.495300,438.413239 
	C407.571838,440.103851 405.424835,440.105469 402.377655,438.353546 
	C352.015045,409.398041 301.558655,380.605560 251.123734,351.775818 
	C215.573990,331.454742 180.023193,311.135529 144.484680,290.794861 
	C143.545639,290.257416 142.743179,289.481354 141.370651,288.427948 
	C152.284317,282.247559 162.667053,276.342560 173.073120,270.478973 
	C249.205826,227.579712 325.365662,184.728455 401.415497,141.682800 
	C405.388947,139.433746 408.135345,139.801315 411.812256,141.884720 
	C459.892853,169.128113 508.046967,196.241806 556.185669,223.382675 
	C574.313599,233.603333 592.449463,243.810043 610.903320,254.197083 
M411.327637,167.030441 
	C407.787170,163.859085 404.586914,165.263351 401.002380,167.319031 
	C334.424347,205.500549 267.792206,243.587723 201.182205,281.713531 
	C196.212692,284.557953 191.324356,287.544220 185.533096,290.977448 
	C188.514740,292.827606 190.536758,294.170227 192.638458,295.373718 
	C262.573425,335.420471 332.528870,375.431580 402.414307,415.564636 
	C405.456055,417.311432 407.600403,417.253723 410.585846,415.531769 
	C443.182373,396.730560 475.871704,378.090363 508.523254,359.384399 
	C546.807678,337.451355 585.081482,315.499725 623.348450,293.536194 
	C624.523804,292.861572 625.572205,291.965668 627.260620,290.757202 
	C554.956726,249.326630 483.468414,208.363403 411.327637,167.030441 
z"/>
<path fill="#ED363C" opacity="1.000000" stroke="none" 
	d="
M520.443115,421.332001 
	C504.020905,430.800690 487.917236,440.084808 470.832306,449.934662 
	C488.994293,460.765686 506.339203,471.109436 524.944885,482.205048 
	C518.210449,486.158142 512.245728,489.813385 506.083832,493.098938 
	C505.227203,493.555695 503.303040,492.359161 502.034271,491.642578 
	C478.267395,478.219208 454.523743,464.754669 430.786865,451.278259 
	C430.390259,451.053101 430.137665,450.574280 429.310333,449.641815 
	C435.148499,446.243042 440.783661,442.914520 446.463043,439.663269 
	C527.358215,393.353912 608.279480,347.089935 689.104187,300.657898 
	C693.457581,298.156982 696.574768,298.239471 700.833435,300.848663 
	C722.129028,313.895782 743.642578,326.587189 765.074097,339.412628 
	C766.457336,340.240448 767.795837,341.143066 769.979492,342.537201 
	C762.267273,347.035004 755.361816,351.219391 748.254089,355.026184 
	C747.269104,355.553741 745.136169,354.475983 743.786316,353.702393 
	C727.464050,344.348663 711.135010,335.003601 694.948486,325.418762 
	C691.795959,323.552032 689.470215,323.529602 686.317993,325.360291 
	C643.853333,350.021851 601.313354,374.553650 558.795959,399.124390 
	C546.111572,406.454651 533.439392,413.805817 520.443115,421.332001 
z"/>
<path fill="#ED363C" opacity="1.000000" stroke="none" 
	d="
M128.138184,334.729401 
	C122.176697,329.419800 116.980728,330.210876 110.597351,334.168518 
	C96.601097,342.846008 81.952995,350.465088 67.755684,358.829712 
	C63.639793,361.254669 60.553116,361.750122 56.696503,358.367828 
	C52.883301,355.023590 48.403839,352.439026 43.439285,348.979553 
	C47.580570,346.539581 50.922485,344.519531 54.311619,342.582092 
	C74.398232,331.099396 94.547340,319.724426 114.542343,308.084625 
	C118.159828,305.978760 120.763916,305.987030 124.442093,308.141510 
	C176.876709,338.854889 229.422226,369.378906 281.938538,399.952881 
	C313.592010,418.380890 345.242462,436.814056 376.886536,455.258240 
	C377.854156,455.822235 378.735626,456.533997 380.204956,457.558899 
	C371.934937,462.462189 364.137085,467.126251 356.300018,471.723480 
	C340.935516,480.736298 325.499329,489.628632 310.217682,498.779297 
	C307.455139,500.433533 305.443054,500.280457 303.007111,498.541595 
	C298.184937,495.099274 293.261047,491.799530 287.546509,487.867950 
	C305.321381,477.483398 322.333008,467.544739 339.671875,457.414948 
	C269.000793,416.420959 198.731079,375.659790 128.138184,334.729401 
z"/>
<path fill="#ED363C" opacity="1.000000" stroke="none" 
	d="
M575.811707,208.062500 
	C527.011169,180.508484 478.536835,153.124466 429.101562,125.197601 
	C437.459900,120.369690 444.740143,116.163788 452.021057,111.959068 
	C466.434113,103.635590 480.798767,95.225410 495.330597,87.114746 
	C496.914215,86.230896 499.870972,86.345528 501.489471,87.250862 
	C507.091888,90.384674 512.384338,94.072624 518.709290,98.137375 
	C503.104004,107.267731 488.300079,115.929222 472.592987,125.119125 
	C478.817200,128.776978 484.168243,131.986435 489.579132,135.091660 
	C556.132629,173.285843 622.718994,211.422958 689.202332,249.738815 
	C693.790771,252.383255 697.134949,252.633011 701.750244,249.596085 
	C714.398621,241.273361 727.514282,233.664322 740.316223,225.569061 
	C743.133972,223.787247 745.212952,223.759064 747.910828,225.666122 
	C753.168274,229.382584 758.648071,232.784470 764.910339,236.889969 
	C757.479248,241.219818 750.845337,245.159592 744.141235,248.976166 
	C729.679382,257.209076 715.116882,265.267822 700.747253,273.657684 
	C697.442871,275.586975 695.117920,275.576630 691.738586,273.650269 
	C653.273804,251.723755 614.689941,230.006012 575.811707,208.062500 
z"/>
<path fill="#ED363C" opacity="1.000000" stroke="none" 
	d="
M191.595764,235.490143 
	C168.279388,248.763214 145.307922,261.896637 122.230469,274.841095 
	C120.679306,275.711182 117.893517,275.947540 116.413277,275.139313 
	C97.278831,264.691559 78.275284,254.003998 59.249702,243.357315 
	C58.561527,242.972198 57.986904,242.384186 56.840328,241.482651 
	C62.810547,237.681274 68.277153,233.941788 74.039841,230.734222 
	C75.299034,230.033340 77.877022,230.766983 79.402214,231.628525 
	C90.411148,237.847107 101.349907,244.194153 112.206444,250.675461 
	C115.100380,252.403137 117.357780,252.487808 120.411064,250.753036 
	C185.382904,213.837753 250.423004,177.042633 315.451355,140.226822 
	C323.089264,135.902634 330.736145,131.594330 339.491455,126.650436 
	C325.408478,117.920082 312.249023,109.762260 298.391602,101.171753 
	C304.067657,96.205223 309.209473,91.583435 314.540283,87.191071 
	C315.236481,86.617447 317.162903,86.791779 318.083588,87.345039 
	C339.197937,100.033073 360.252502,112.820580 381.307098,125.607903 
	C381.555725,125.758904 381.658569,126.149902 382.245300,127.107597 
	C318.783173,163.184433 255.349411,199.245163 191.595764,235.490143 
z"/>
<path fill="#434597" opacity="1.000000" stroke="none" 
	d="
M1414.285034,334.969421 
	C1414.284058,339.412842 1414.284058,343.362732 1414.284058,347.790314 
	C1408.594482,347.790314 1403.628662,347.758392 1398.663452,347.800568 
	C1394.813354,347.833252 1395.653687,344.986237 1395.649414,342.829407 
	C1395.607666,321.676300 1395.624268,300.523071 1395.624268,279.369873 
	C1395.624268,269.731354 1395.624268,260.092804 1395.624268,250.525696 
	C1396.338745,250.177567 1396.775635,249.778534 1397.212402,249.778702 
	C1414.530884,249.785400 1431.859863,249.483856 1449.163818,250.004120 
	C1458.562134,250.286697 1467.699951,252.632507 1471.331909,263.030029 
	C1475.127686,273.896515 1474.596680,285.011841 1471.657959,295.972260 
	C1470.092041,301.812775 1465.110229,304.405029 1459.743896,306.222839 
	C1460.090576,306.794678 1460.205322,307.256500 1460.433960,307.322205 
	C1471.045654,310.371155 1472.840698,318.732117 1472.928711,328.081696 
	C1472.988037,334.382599 1472.940063,340.684509 1472.940063,347.766724 
	C1467.270508,347.766724 1461.995361,347.925201 1456.748535,347.609680 
	C1455.880615,347.557495 1454.511963,345.467834 1454.443237,344.258911 
	C1454.121704,338.612457 1454.461548,332.922668 1454.027954,327.289673 
	C1453.373047,318.780884 1450.113525,315.730499 1441.660645,315.502350 
	C1433.837769,315.291229 1426.003296,315.531769 1418.178589,315.360596 
	C1415.059326,315.292358 1414.115723,316.535950 1414.216064,319.486908 
	C1414.385986,324.478271 1414.277466,329.479095 1414.285034,334.969421 
M1451.610474,296.134796 
	C1456.501709,290.248199 1455.165039,283.241058 1454.822754,276.563293 
	C1454.418579,268.672943 1451.868896,266.246918 1443.973145,265.975342 
	C1435.339966,265.678436 1426.688721,265.933777 1418.049438,265.755463 
	C1414.991333,265.692383 1413.984131,266.800354 1414.038574,269.817749 
	C1414.191650,278.291656 1414.205811,286.771973 1414.048096,295.245544 
	C1413.990845,298.315643 1415.088379,299.311340 1418.087280,299.251587 
	C1426.062378,299.092621 1434.052124,299.392578 1442.015015,299.038513 
	C1445.043457,298.903839 1448.014526,297.481354 1451.610474,296.134796 
z"/>
<path fill="#444698" opacity="1.000000" stroke="none" 
	d="
M1823.904541,275.144592 
	C1823.819946,280.117340 1823.965088,284.634796 1823.549316,289.099976 
	C1822.757690,297.599091 1819.148071,304.121063 1809.977173,305.943634 
	C1810.241943,306.631531 1810.291382,307.098572 1810.458374,307.145172 
	C1819.640381,309.707794 1822.877075,316.448547 1823.114990,325.226593 
	C1823.286499,331.551117 1823.261963,337.881012 1823.436890,344.205383 
	C1823.506470,346.716553 1822.626709,347.885132 1819.988892,347.808380 
	C1815.994019,347.692108 1811.989502,347.676331 1807.996216,347.818481 
	C1805.245483,347.916412 1804.634155,346.542572 1804.612427,344.144379 
	C1804.556519,337.986511 1804.616211,331.807770 1804.117188,325.679108 
	C1803.584717,319.139862 1800.412109,315.988403 1793.841064,315.692230 
	C1785.195435,315.302582 1776.523315,315.525330 1767.864014,315.394592 
	C1765.089966,315.352753 1764.624390,316.797913 1764.655273,319.173553 
	C1764.759033,327.168915 1764.584106,335.169220 1764.770630,343.161652 
	C1764.848022,346.481873 1764.037964,347.833679 1760.359253,347.860748 
	C1746.060547,347.966003 1746.064941,348.097198 1746.064453,333.637177 
	C1746.063599,307.481384 1746.058350,281.325592 1746.055054,255.169815 
	C1746.054932,253.542206 1746.055054,251.914597 1746.055054,249.953537 
	C1748.025635,249.835678 1749.485962,249.673737 1750.946167,249.672577 
	C1765.440063,249.661087 1779.934082,249.665237 1794.427979,249.696533 
	C1796.423462,249.700836 1798.427002,249.792740 1800.412720,249.987106 
	C1816.718140,251.582916 1823.068604,258.276154 1823.904541,275.144592 
M1793.952637,299.010864 
	C1802.638428,297.477142 1804.776367,295.196198 1805.252686,286.606110 
	C1805.427490,283.452393 1805.453369,280.271667 1805.264771,277.120148 
	C1804.777222,268.969055 1802.333008,266.315063 1794.275269,266.010223 
	C1785.623901,265.682831 1776.952148,265.930206 1768.292236,265.767487 
	C1765.360718,265.712402 1764.615479,266.988953 1764.651123,269.676117 
	C1764.763916,278.171173 1764.781372,286.670013 1764.649170,295.164490 
	C1764.603882,298.083923 1765.371216,299.338409 1768.571045,299.249451 
	C1776.727661,299.022736 1784.893433,299.124237 1793.952637,299.010864 
z"/>
<path fill="#434497" opacity="1.000000" stroke="none" 
	d="
M1694.953979,348.537720 
	C1686.679688,347.958740 1678.808228,347.896820 1671.121582,346.674011 
	C1660.731934,345.021240 1654.265381,338.404602 1651.740112,328.247406 
	C1650.784058,324.401794 1650.226440,320.367462 1650.158813,316.407715 
	C1649.965820,305.087433 1649.912476,293.755493 1650.230225,282.440125 
	C1650.364502,277.661865 1651.085083,272.778107 1652.382324,268.180176 
	C1654.981445,258.967957 1661.080078,252.902145 1670.618530,250.955551 
	C1685.105957,247.998962 1699.765503,247.635468 1714.331665,249.893311 
	C1727.273438,251.899368 1735.019287,263.423889 1733.007324,276.760162 
	C1732.849609,277.806946 1731.102295,279.142365 1729.899780,279.385895 
	C1727.823486,279.806366 1725.573730,279.274323 1723.433960,279.497925 
	C1718.192993,280.045593 1714.109985,279.807037 1713.885254,272.709625 
	C1713.767212,268.984955 1710.531616,266.307312 1706.689453,266.186646 
	C1697.252075,265.890259 1687.784424,265.739410 1678.359497,266.180542 
	C1673.305664,266.417114 1669.884033,270.079956 1669.777954,275.093994 
	C1669.447998,290.694824 1669.225586,306.320862 1669.791870,321.906952 
	C1670.034180,328.574188 1674.497681,331.635101 1681.875610,332.078308 
	C1687.687988,332.427490 1693.527344,332.493805 1699.352173,332.435516 
	C1710.259766,332.326416 1713.976562,328.727509 1714.656494,317.817383 
	C1714.807739,315.391113 1714.678711,312.947388 1714.678711,309.953430 
	C1706.542114,309.953430 1698.961548,309.953430 1690.797241,309.953430 
	C1690.797241,305.613556 1690.643555,301.819031 1690.914795,298.055145 
	C1690.975952,297.207214 1692.511353,295.787231 1693.380859,295.777496 
	C1706.497803,295.630646 1719.617065,295.675598 1733.470703,295.675598 
	C1733.179321,308.678741 1734.815308,321.332214 1731.153687,333.648285 
	C1728.941895,341.088013 1722.949951,344.978485 1715.747070,346.349640 
	C1709.080566,347.618683 1702.216309,347.849579 1694.953979,348.537720 
z"/>
<path fill="#434497" opacity="1.000000" stroke="none" 
	d="
M1898.715332,251.243744 
	C1908.472778,253.990326 1913.855225,260.493927 1915.201294,269.768433 
	C1916.318726,277.467102 1916.359863,285.345337 1916.531982,293.151642 
	C1916.722778,301.808167 1916.720703,310.479614 1916.447998,319.133392 
	C1915.883423,337.045166 1907.499634,346.267883 1889.619141,347.591003 
	C1879.374878,348.349121 1868.973877,348.286469 1858.733521,347.467987 
	C1846.492676,346.489624 1839.014282,340.030151 1837.105835,328.145752 
	C1833.898804,308.174530 1834.040283,288.019897 1837.218384,268.005737 
	C1838.938110,257.176178 1846.193481,251.676468 1856.621216,250.097992 
	C1870.567993,247.986786 1884.495605,248.005753 1898.715332,251.243744 
M1853.715698,300.499786 
	C1854.007080,307.798920 1853.870361,315.148315 1854.719971,322.381866 
	C1855.451538,328.609070 1858.787964,331.464569 1865.067261,331.914276 
	C1871.176514,332.351807 1877.368408,332.539154 1883.463623,332.062378 
	C1893.378174,331.286835 1897.326782,327.567871 1897.740723,317.578613 
	C1898.284180,304.463013 1898.175293,291.298920 1897.770386,278.173492 
	C1897.521851,270.113312 1893.814209,266.203491 1885.773193,265.459381 
	C1879.375122,264.867340 1872.810791,265.112152 1866.405762,265.791473 
	C1857.638672,266.721283 1854.737305,269.783234 1854.067139,278.568665 
	C1853.537476,285.514282 1853.803101,292.520538 1853.715698,300.499786 
z"/>
<path fill="#434597" opacity="1.000000" stroke="none" 
	d="
M1029.675171,324.601379 
	C1029.631836,321.874084 1029.631836,319.580200 1029.631836,316.596436 
	C1035.187744,316.596436 1040.466431,316.468109 1045.723633,316.746277 
	C1046.443237,316.784363 1047.530273,318.801361 1047.643677,319.979462 
	C1048.642456,330.362915 1050.285645,332.307831 1060.767090,332.860718 
	C1066.886719,333.183533 1073.087891,332.933563 1079.190430,332.322113 
	C1084.948242,331.745209 1087.350952,328.953461 1088.107666,323.264160 
	C1088.369873,321.292511 1088.420898,319.271240 1088.349365,317.280518 
	C1088.069458,309.491089 1085.540527,306.911682 1077.775757,306.357239 
	C1068.975098,305.728821 1060.116211,305.547913 1051.385620,304.393005 
	C1037.229980,302.520508 1030.780640,295.338867 1030.223389,281.106903 
	C1030.017212,275.839722 1030.515137,270.443268 1031.490601,265.255981 
	C1032.866699,257.938812 1037.492554,253.010498 1044.814819,251.223694 
	C1059.438599,247.655243 1074.287964,247.479492 1088.939331,250.420883 
	C1100.224854,252.686554 1107.110107,264.667145 1104.857666,276.330322 
	C1104.682617,277.237457 1103.275269,278.521515 1102.382202,278.570618 
	C1098.062988,278.808258 1093.702393,278.916870 1089.406128,278.525604 
	C1088.309082,278.425690 1086.670776,276.426056 1086.510742,275.145508 
	C1085.400879,266.268066 1084.224609,264.891083 1075.396118,264.677795 
	C1069.573608,264.537109 1063.713867,264.545837 1057.918335,265.041748 
	C1050.875122,265.644379 1048.438721,268.882965 1048.418579,276.497589 
	C1048.394775,285.477325 1050.288330,288.253540 1057.691895,289.078583 
	C1065.799072,289.982025 1073.946655,290.522491 1082.075439,291.234406 
	C1083.734009,291.379669 1085.398315,291.513519 1087.041260,291.772247 
	C1101.728638,294.085022 1106.731445,299.475830 1106.775879,314.352234 
	C1106.795410,320.919647 1106.090698,327.641571 1104.569702,334.020264 
	C1102.901001,341.018494 1097.728027,345.361877 1090.541504,346.713501 
	C1076.331543,349.386017 1061.983154,349.486206 1047.762329,347.350494 
	C1036.209351,345.615479 1031.024170,338.576630 1029.675171,324.601379 
z"/>
<path fill="#434597" opacity="1.000000" stroke="none" 
	d="
M1575.789551,270.739838 
	C1574.970093,266.501343 1572.090088,265.071747 1568.778076,264.996002 
	C1561.463501,264.828766 1554.107178,264.681305 1546.828857,265.273682 
	C1540.315674,265.803741 1538.118164,269.113373 1538.104370,276.343262 
	C1538.087646,285.112152 1539.930664,288.089630 1546.869019,288.923431 
	C1555.628662,289.976105 1564.452271,290.485321 1573.239868,291.318268 
	C1591.254517,293.025879 1596.388062,298.165375 1596.559692,316.222595 
	C1596.621704,322.739105 1595.422363,329.451599 1593.643433,335.748322 
	C1591.963623,341.693878 1587.132935,345.330658 1580.928711,346.540833 
	C1566.229126,349.408112 1551.396729,349.598511 1536.693726,347.152252 
	C1526.557617,345.465790 1520.864502,338.415222 1519.812988,328.128937 
	C1519.445801,324.535950 1519.433228,320.906738 1519.240479,316.920105 
	C1525.525635,316.920105 1531.236694,316.920105 1536.710083,316.920105 
	C1537.038452,317.403137 1537.205444,317.534485 1537.209595,317.670868 
	C1537.631104,331.390289 1540.361328,332.620148 1554.156738,333.073486 
	C1558.635742,333.220703 1563.161133,333.081146 1567.615234,332.604218 
	C1574.833740,331.831268 1577.089844,329.391907 1577.947021,322.124756 
	C1578.160522,320.314423 1578.233398,318.457489 1578.101318,316.641632 
	C1577.569336,309.326569 1575.227905,306.956268 1567.878662,306.389496 
	C1559.080200,305.710907 1550.218384,305.571533 1541.480713,304.447266 
	C1526.869263,302.567230 1520.593384,295.234924 1519.970703,280.408051 
	C1519.034546,258.121399 1525.379395,250.685562 1547.599487,249.215942 
	C1556.370728,248.635818 1565.281006,248.736008 1574.029785,249.563950 
	C1588.422241,250.925995 1596.603760,261.748474 1594.668823,276.020477 
	C1594.530884,277.037506 1592.694458,278.458496 1591.530518,278.581543 
	C1588.234619,278.929993 1584.856567,278.466248 1581.550049,278.760773 
	C1577.567017,279.115601 1575.437256,278.047089 1576.154663,273.628632 
	C1576.282837,272.839783 1575.984497,271.981659 1575.789551,270.739838 
z"/>
<path fill="#434497" opacity="1.000000" stroke="none" 
	d="
M950.544312,253.465057 
	C962.328308,247.902618 974.564758,248.650909 986.699768,248.924500 
	C990.673279,249.014099 994.663330,249.687119 998.587646,250.409363 
	C1011.364075,252.760849 1018.939453,259.926971 1019.568115,272.771088 
	C1020.413147,290.036743 1020.424805,307.398285 1019.662109,324.668640 
	C1019.134399,336.619904 1011.118042,345.263214 999.262573,346.522461 
	C986.772949,347.849060 974.015564,348.114471 961.490173,347.224548 
	C949.487244,346.371765 941.557922,339.188019 940.806030,327.109924 
	C939.611694,307.924408 940.203613,288.595978 940.777771,269.350037 
	C940.967773,262.984283 944.292114,257.213440 950.544312,253.465057 
M997.177734,328.724274 
	C998.449707,326.271332 1000.754089,323.847565 1000.824341,321.360626 
	C1001.250671,306.282440 1001.578247,291.175873 1001.067566,276.108307 
	C1000.838501,269.348602 997.364441,266.182007 990.493408,265.615906 
	C983.273376,265.021118 975.894653,265.291229 968.675720,266.047241 
	C961.672729,266.780609 958.495239,269.698395 958.273804,276.634338 
	C957.792542,291.707520 957.909790,306.822205 958.528381,321.889282 
	C958.651611,324.891968 961.536926,329.556946 964.121887,330.373199 
	C974.880676,333.770508 985.931152,334.233734 997.177734,328.724274 
z"/>
<path fill="#424396" opacity="1.000000" stroke="none" 
	d="
M1226.329956,332.987579 
	C1226.329712,338.094635 1226.329712,342.704712 1226.329712,347.431091 
	C1219.900269,347.431091 1214.162720,347.431091 1208.154053,347.431091 
	C1208.154053,314.850220 1208.154053,282.615204 1208.154053,250.023834 
	C1214.073608,250.023834 1219.817261,250.023834 1226.075684,250.023834 
	C1226.170532,251.423035 1226.348389,252.841217 1226.349854,254.259598 
	C1226.361328,264.753082 1226.410522,275.247498 1226.278442,285.739502 
	C1226.241089,288.714172 1227.198853,289.922333 1230.285034,289.879974 
	C1242.273560,289.715485 1254.266724,289.575073 1266.253052,289.756653 
	C1270.124268,289.815277 1271.050781,288.419769 1270.994019,284.826385 
	C1270.813232,273.365204 1270.927002,261.899353 1270.927002,249.662338 
	C1276.597778,249.662338 1281.877930,249.452576 1287.107422,249.872467 
	C1287.961792,249.941055 1289.220825,252.783447 1289.232300,254.351578 
	C1289.375610,274.005371 1289.323242,293.660614 1289.321655,313.315491 
	C1289.320801,323.309479 1289.203613,333.305634 1289.385376,343.296326 
	C1289.448486,346.777283 1288.362061,348.052094 1284.811523,347.825836 
	C1280.386353,347.543823 1275.929443,347.758118 1270.932983,347.758118 
	C1270.932983,335.656311 1270.917480,324.207825 1270.938843,312.759399 
	C1270.951660,305.883179 1270.977539,305.886078 1264.242798,305.885315 
	C1253.416016,305.884064 1242.583130,306.092102 1231.765503,305.773560 
	C1227.219604,305.639709 1226.059692,307.226959 1226.255981,311.508606 
	C1226.575806,318.489105 1226.334595,325.495270 1226.329956,332.987579 
z"/>
<path fill="#424397" opacity="1.000000" stroke="none" 
	d="
M1939.554443,343.547638 
	C1931.698242,337.654724 1929.777710,329.364410 1929.676514,320.717468 
	C1929.405762,297.559998 1929.566895,274.397491 1929.574097,251.236984 
	C1929.574219,250.936752 1929.806152,250.636581 1930.069702,249.996643 
	C1935.846313,249.996643 1941.758911,249.996643 1948.161865,249.996643 
	C1948.161865,252.375519 1948.162109,254.642410 1948.161743,256.909302 
	C1948.158447,277.238525 1948.121704,297.567810 1948.165405,317.896942 
	C1948.187744,328.294739 1950.965698,331.381348 1961.279663,332.009125 
	C1967.084473,332.362427 1972.946167,332.463013 1978.744141,332.087799 
	C1987.449097,331.524445 1990.565674,328.114349 1990.636353,319.320831 
	C1990.807861,297.993866 1990.806641,276.665527 1990.873657,255.337753 
	C1990.878906,253.699890 1990.874634,252.062012 1990.874634,249.659149 
	C1996.554077,249.659149 2001.836792,249.441559 2007.067627,249.865555 
	C2007.978027,249.939331 2009.347534,252.714951 2009.358643,254.250977 
	C2009.509521,275.079010 2009.484009,295.908569 2009.429810,316.737579 
	C2009.421143,320.060211 2009.235962,323.403503 2008.830811,326.700165 
	C2007.417236,338.207031 2001.050293,345.841827 1989.495605,346.887848 
	C1976.632690,348.052277 1963.596802,347.660370 1950.651611,347.335480 
	C1947.027222,347.244507 1943.457031,345.000183 1939.554443,343.547638 
z"/>
<path fill="#434597" opacity="1.000000" stroke="none" 
	d="
M1364.100586,273.715820 
	C1372.269531,298.346130 1380.308105,322.603241 1388.643311,347.755646 
	C1382.446045,347.755646 1377.182983,347.873047 1371.934326,347.651703 
	C1370.943481,347.609894 1369.923950,346.301666 1369.085938,345.418121 
	C1368.673706,344.983490 1368.678223,344.171631 1368.439331,343.551514 
	C1366.664185,338.941711 1366.093994,332.685822 1362.737915,330.209442 
	C1359.570923,327.872498 1353.468872,329.451843 1348.657104,329.419678 
	C1341.167969,329.369598 1333.674683,329.549377 1326.190674,329.348328 
	C1323.351685,329.272064 1321.936035,330.193298 1321.170898,332.895050 
	C1320.038818,336.891968 1318.767578,340.868988 1317.210449,344.714722 
	C1316.707153,345.958038 1315.165039,347.561646 1314.017212,347.629395 
	C1308.745239,347.940613 1303.444702,347.766418 1297.356445,347.766418 
	C1298.060181,345.310120 1298.530396,343.458679 1299.119019,341.645691 
	C1308.517944,312.692200 1318.019287,283.771484 1327.243042,254.762344 
	C1328.551514,250.647339 1330.463257,249.278229 1334.667358,249.551697 
	C1340.468628,249.929031 1346.322266,249.871231 1352.132935,249.584702 
	C1355.265015,249.430252 1356.557495,250.614487 1357.417847,253.433258 
	C1359.456909,260.113953 1361.768677,266.711426 1364.100586,273.715820 
M1345.839844,272.648071 
	C1345.081421,270.221588 1344.323120,267.795105 1343.564697,265.368622 
	C1343.165527,265.397430 1342.766357,265.426270 1342.367188,265.455109 
	C1337.141602,281.737976 1331.916138,298.020844 1326.588501,314.621643 
	C1337.881958,314.621643 1348.240967,314.621643 1359.369019,314.621643 
	C1354.803345,300.494415 1350.426880,286.952850 1345.839844,272.648071 
z"/>
<path fill="#444598" opacity="1.000000" stroke="none" 
	d="
M1182.067383,251.809387 
	C1190.709595,255.891235 1193.069946,263.272827 1193.948853,271.594940 
	C1195.122681,282.710724 1195.173096,282.705292 1184.266968,282.705994 
	C1182.933960,282.706085 1181.587158,282.584900 1180.270630,282.732422 
	C1177.224854,283.073700 1176.276978,281.819702 1176.195801,278.772644 
	C1175.904663,267.854187 1174.248413,265.948242 1163.471558,265.299835 
	C1157.525879,264.942108 1151.474365,265.214142 1145.551636,265.901337 
	C1138.843506,266.679565 1135.252441,269.904266 1135.032471,276.571106 
	C1134.549561,291.200134 1134.513306,305.871948 1135.080322,320.495819 
	C1135.365234,327.843048 1139.367065,331.185181 1146.729004,331.796478 
	C1152.689697,332.291443 1158.712769,332.310242 1164.698730,332.161102 
	C1172.918945,331.956268 1176.348145,328.476196 1177.017700,320.198181 
	C1177.203979,317.894745 1177.252930,315.580170 1177.399780,312.547180 
	C1182.775269,312.547180 1187.895752,312.378418 1192.985474,312.698181 
	C1193.934448,312.757812 1195.501953,314.771332 1195.513184,315.895905 
	C1195.559814,320.544006 1195.487549,325.254303 1194.777710,329.836182 
	C1193.352783,339.033081 1187.985474,345.704254 1178.698730,346.499054 
	C1165.008789,347.670685 1151.115234,348.293854 1137.443604,347.295959 
	C1125.470703,346.422089 1117.996094,338.589661 1117.283691,326.054016 
	C1116.266968,308.161835 1116.448730,290.126831 1117.426392,272.224304 
	C1118.003784,261.653717 1124.359863,253.801483 1135.254395,251.243652 
	C1150.723022,247.611938 1166.264160,247.463821 1182.067383,251.809387 
z"/>
<path fill="#444698" opacity="1.000000" stroke="none" 
	d="
M877.542847,348.389618 
	C859.137512,345.797760 852.219727,339.405701 851.205566,321.288086 
	C850.324280,305.545349 850.700256,289.665070 851.617249,273.909424 
	C852.389771,260.635406 859.882690,253.098938 872.941406,250.445099 
	C885.480591,247.896835 898.134460,248.112946 910.707153,250.112869 
	C920.595093,251.685730 926.089661,257.270355 927.765381,267.079041 
	C928.597961,271.952576 928.836121,276.927643 929.429443,282.695435 
	C923.591492,282.695435 918.483521,282.839386 913.398254,282.563324 
	C912.478149,282.513397 911.182678,280.861664 910.890808,279.734406 
	C910.444519,278.010742 910.811768,276.093079 910.672241,274.270142 
	C910.308838,269.522949 907.951904,266.181519 903.038452,265.938416 
	C895.588501,265.569794 888.069519,265.227478 880.658447,265.834076 
	C873.485291,266.421234 870.013855,269.355225 869.684265,276.563629 
	C869.009644,291.321442 868.972168,306.163147 869.769104,320.911011 
	C870.184814,328.603241 874.707397,331.610779 882.692566,332.019043 
	C888.007874,332.290741 893.347351,332.313110 898.669312,332.179779 
	C907.806458,331.950928 911.168030,328.510864 911.610901,319.316528 
	C911.936890,312.548248 911.936829,312.548218 918.540771,312.543488 
	C918.707336,312.543365 918.873840,312.543549 919.040405,312.543488 
	C931.527710,312.540588 931.527649,312.540588 930.019531,325.359497 
	C928.277893,340.162476 922.723083,346.148254 907.901855,347.519714 
	C897.987915,348.437103 887.964783,348.174530 877.542847,348.389618 
z"/>
<path fill="#444597" opacity="1.000000" stroke="none" 
	d="
M2097.258789,261.511292 
	C2100.119141,272.851990 2100.694092,284.130920 2099.369629,295.985260 
	C2099.487061,296.787445 2099.445801,297.130432 2099.015625,297.930908 
	C2098.591797,299.083252 2098.556885,299.778076 2098.522217,300.472900 
	C2098.449707,300.828033 2098.377197,301.183167 2097.937012,301.927734 
	C2097.529053,302.681061 2097.489258,303.044922 2097.449219,303.408813 
	C2097.449219,303.408813 2097.404053,303.773499 2097.026367,304.068481 
	C2096.377686,305.150146 2096.106689,305.936798 2095.835449,306.723511 
	C2095.463867,307.302368 2095.092041,307.881226 2094.380859,308.704865 
	C2094.041504,308.949615 2093.884033,309.209869 2093.884033,309.209869 
	C2093.884033,309.209869 2093.595947,309.603912 2093.348389,309.763245 
	C2093.100830,309.922577 2092.967285,310.075806 2092.967285,310.075806 
	C2092.423340,310.557312 2091.879395,311.038849 2090.682373,311.657349 
	C2089.365479,312.230560 2088.701416,312.666779 2088.037598,313.102997 
	C2088.037598,313.102997 2087.707520,313.260162 2087.182617,313.199951 
	C2086.097900,313.487366 2085.538330,313.834991 2084.978516,314.182617 
	C2084.647705,314.277649 2084.316895,314.372650 2083.384277,314.349121 
	C2082.181641,314.541901 2081.580811,314.853271 2080.980225,315.164612 
	C2079.545898,315.374237 2078.111328,315.583862 2075.987305,315.528320 
	C2065.518311,315.206299 2055.738037,315.205353 2045.959595,315.060272 
	C2042.812622,315.013641 2041.973999,316.582062 2042.007935,319.379059 
	C2042.120605,328.665771 2042.135254,337.953705 2042.187500,347.241150 
	C2036.698486,347.311462 2031.209473,347.381775 2025.396484,346.956757 
	C2024.879639,345.963837 2024.686768,345.466217 2024.493774,344.968567 
	C2024.459717,314.300323 2024.425659,283.632080 2024.614990,252.297470 
	C2025.267700,251.035477 2025.696899,250.439835 2026.126221,249.844238 
	C2041.090820,249.845398 2056.055420,249.846527 2071.842529,250.089966 
	C2074.574463,250.428833 2076.483643,250.525391 2078.393066,250.621948 
	C2079.046387,250.675461 2079.699951,250.728973 2080.903809,251.145233 
	C2084.386963,252.268402 2087.319336,253.028824 2090.251709,253.789215 
	C2090.656006,254.019501 2091.060547,254.249817 2091.760742,254.762451 
	C2092.056641,255.044769 2092.277344,255.138596 2092.277344,255.138611 
	C2093.305420,256.136444 2094.333252,257.134277 2095.561279,258.722534 
	C2096.177734,259.873932 2096.594482,260.434937 2097.010986,260.995911 
	C2097.010986,260.995911 2097.216553,261.322845 2097.258789,261.511292 
M2082.810303,284.384796 
	C2082.759277,282.558289 2082.799316,280.723816 2082.641846,278.906555 
	C2081.772949,268.887054 2078.905029,266.099091 2068.858887,265.868744 
	C2061.549316,265.701141 2054.230957,265.906311 2046.921387,265.735626 
	C2043.891602,265.664917 2042.822754,266.731903 2042.874390,269.768738 
	C2043.021484,278.409149 2043.089111,287.057678 2042.862427,295.694489 
	C2042.765137,299.398987 2044.297485,300.161316 2047.592651,300.059479 
	C2054.234619,299.854156 2060.888184,300.042694 2067.535400,299.962921 
	C2079.198242,299.823029 2082.111084,296.982422 2082.810303,284.384796 
z"/>
<path fill="#ED363C" opacity="1.000000" stroke="none" 
	d="
M421.737549,496.141846 
	C411.896790,486.996460 403.184357,488.884064 393.048828,496.104828 
	C379.936981,505.446014 365.664642,513.175842 351.728271,521.319397 
	C350.018616,522.318420 346.944519,522.368103 345.115173,521.526489 
	C338.664185,518.558716 332.479828,515.011230 325.263275,511.190735 
	C328.557953,509.063873 331.066620,507.318726 333.691132,505.769928 
	C356.328156,492.411011 379.003265,479.116577 401.613434,465.712555 
	C404.120392,464.226410 406.163208,463.707001 408.934082,465.283478 
	C432.658600,478.781799 456.461182,492.142883 480.229340,505.564636 
	C480.630035,505.790894 480.892456,506.262085 481.862671,507.321136 
	C475.284760,511.433502 468.968323,515.550842 462.429657,519.278259 
	C461.508331,519.803467 459.351501,518.676697 458.020233,517.886902 
	C445.998566,510.755035 434.033447,503.527863 421.737549,496.141846 
z"/>
<path fill="#ED373C" opacity="1.000000" stroke="none" 
	d="
M795.497498,254.621735 
	C798.020386,256.236267 800.236328,257.655701 803.345154,259.647095 
	C785.312317,269.784424 767.905396,279.569885 749.373291,289.987915 
	C768.657227,301.302490 787.045105,312.091339 806.496826,323.504364 
	C798.224792,327.833740 790.855408,331.785858 783.361084,335.484741 
	C782.487793,335.915771 780.749573,335.228424 779.704834,334.584747 
	C756.323669,320.178925 732.982239,305.708496 709.646851,291.228577 
	C709.266846,290.992737 709.054382,290.486847 708.398193,289.629333 
	C717.268005,284.223175 725.994690,278.870392 734.754639,273.572601 
	C748.988647,264.964294 763.290405,256.466614 777.450073,247.738022 
	C780.112122,246.097046 782.112793,245.946487 784.660095,247.749557 
	C788.048157,250.147781 791.669434,252.216446 795.497498,254.621735 
z"/>
<path fill="#ED373D" opacity="1.000000" stroke="none" 
	d="
M26.943306,259.011047 
	C32.370728,253.412186 37.167942,254.299164 43.305946,258.059021 
	C60.743568,268.740479 78.658424,278.642670 96.376541,288.867004 
	C97.199982,289.342163 97.937660,289.965912 99.442741,291.039246 
	C93.126427,294.710876 87.317490,298.097717 81.498947,301.467987 
	C62.794346,312.302307 44.051350,323.071198 25.415281,334.022064 
	C22.471199,335.752045 20.145018,335.836456 17.145136,334.205505 
	C12.373334,331.611176 7.327796,329.520325 1.265730,326.687378 
	C21.272741,314.306854 40.362968,302.493622 60.462284,290.055969 
	C45.546715,281.937500 31.539289,274.313324 16.765047,266.271790 
	C20.532106,263.578552 23.588341,261.393494 26.943306,259.011047 
z"/>
<path fill="#ED373C" opacity="1.000000" stroke="none" 
	d="
M386.419983,99.442642 
	C371.395264,90.895805 356.685760,82.538727 340.912537,73.577286 
	C348.072662,69.367432 354.216736,65.584282 360.571320,62.195923 
	C361.567413,61.664787 363.687286,62.638363 365.003784,63.404053 
	C378.233948,71.098984 391.449371,78.821945 404.557465,86.722015 
	C407.424194,88.449768 409.526764,88.781380 412.629669,86.880928 
	C425.683990,78.885452 439.019562,71.350159 452.113922,63.418243 
	C454.973755,61.685928 457.047333,61.728634 459.775909,63.523109 
	C464.871307,66.874153 470.208954,69.856827 476.299103,73.503746 
	C470.639374,76.808403 465.709320,79.743134 460.726837,82.585945 
	C444.538879,91.822136 428.379425,101.111092 412.062683,110.114563 
	C410.315338,111.078735 407.212067,111.092873 405.417480,110.192703 
	C399.031189,106.989273 392.938843,103.199898 386.419983,99.442642 
z"/>
<path fill="#464898" opacity="1.000000" stroke="none" 
	d="
M1488.189453,301.000000 
	C1488.189575,283.735962 1488.189575,266.971924 1488.189575,249.931885 
	C1494.630249,249.931885 1500.527588,249.931885 1506.673828,249.931885 
	C1506.771362,251.524246 1506.919800,252.821594 1506.920288,254.119019 
	C1506.931274,283.580139 1506.854980,313.041595 1507.006592,342.501923 
	C1507.027344,346.553925 1506.035156,347.961609 1501.758911,347.891449 
	C1488.192139,347.668732 1488.189331,347.842224 1488.189331,334.456543 
	C1488.189331,323.471039 1488.189453,312.485504 1488.189453,301.000000 
z"/>
<path fill="#7D7FB9" opacity="1.000000" stroke="none" 
	d="
M2042.549438,347.091156 
	C2042.135254,337.953705 2042.120605,328.665771 2042.007935,319.379059 
	C2041.973999,316.582062 2042.812622,315.013641 2045.959595,315.060272 
	C2055.738037,315.205353 2065.518311,315.206299 2075.625000,315.505981 
	C2069.070801,316.043304 2062.191650,316.511322 2055.308105,316.593536 
	C2043.558716,316.733856 2043.629028,316.632782 2043.528931,328.232544 
	C2043.474976,334.470062 2043.126709,340.705048 2042.549438,347.091156 
z"/>
<path fill="#7D7FB9" opacity="1.000000" stroke="none" 
	d="
M2090.097168,253.482208 
	C2087.319336,253.028824 2084.386963,252.268402 2081.222412,251.223221 
	C2083.974365,251.684021 2086.958496,252.429596 2090.097168,253.482208 
z"/>
<path fill="#7D7FB9" opacity="1.000000" stroke="none" 
	d="
M2078.175293,250.360657 
	C2076.483643,250.525391 2074.574463,250.428833 2072.305908,250.136459 
	C2073.950439,249.993546 2075.953857,250.046448 2078.175293,250.360657 
z"/>
<path fill="#7D7FB9" opacity="1.000000" stroke="none" 
	d="
M2085.172363,314.336609 
	C2085.538330,313.834991 2086.097900,313.487366 2087.000977,313.220947 
	C2086.684814,313.698273 2086.025391,314.094452 2085.172363,314.336609 
z"/>
<path fill="#7D7FB9" opacity="1.000000" stroke="none" 
	d="
M2081.167969,315.325317 
	C2081.580811,314.853271 2082.181641,314.541901 2083.126221,314.369019 
	C2082.765381,314.833679 2082.060791,315.159821 2081.167969,315.325317 
z"/>
<path fill="#7D7FB9" opacity="1.000000" stroke="none" 
	d="
M2025.871094,249.726578 
	C2025.696899,250.439835 2025.267700,251.035477 2024.648071,251.833374 
	C2024.843872,251.226730 2025.229980,250.417831 2025.871094,249.726578 
z"/>
<path fill="#7D7FB9" opacity="1.000000" stroke="none" 
	d="
M2098.735840,300.331116 
	C2098.556885,299.778076 2098.591797,299.083252 2098.928223,298.177948 
	C2099.136475,298.708099 2099.042725,299.448730 2098.735840,300.331116 
z"/>
<path fill="#7D7FB9" opacity="1.000000" stroke="none" 
	d="
M2096.132812,306.599365 
	C2096.106689,305.936798 2096.377686,305.150146 2096.942871,304.231995 
	C2096.967773,304.892120 2096.698975,305.683685 2096.132812,306.599365 
z"/>
<path fill="#7D7FB9" opacity="1.000000" stroke="none" 
	d="
M2088.359619,313.137024 
	C2088.701416,312.666779 2089.365479,312.230560 2090.344727,311.797424 
	C2090.000732,312.257416 2089.341309,312.714233 2088.359619,313.137024 
z"/>
<path fill="#7D7FB9" opacity="1.000000" stroke="none" 
	d="
M2097.043945,260.692505 
	C2096.594482,260.434937 2096.177734,259.873932 2095.733398,259.038666 
	C2096.162842,259.305939 2096.620117,259.847504 2097.043945,260.692505 
z"/>
<path fill="#7D7FB9" opacity="1.000000" stroke="none" 
	d="
M2024.331787,345.238800 
	C2024.686768,345.466217 2024.879639,345.963837 2025.030762,346.735748 
	C2024.715942,346.509705 2024.442993,346.009369 2024.331787,345.238800 
z"/>
<path fill="#7D7FB9" opacity="1.000000" stroke="none" 
	d="
M2092.355957,255.002182 
	C2092.277344,255.138596 2092.056641,255.044769 2092.022461,254.995392 
	C2091.988037,254.946030 2092.173584,254.693054 2092.173584,254.693054 
	C2092.173584,254.693054 2092.434326,254.865768 2092.355957,255.002182 
z"/>
<path fill="#7D7FB9" opacity="1.000000" stroke="none" 
	d="
M2094.015625,309.294922 
	C2093.884033,309.209869 2094.041504,308.949615 2094.115234,308.926239 
	C2094.188721,308.902863 2094.366943,309.159180 2094.366943,309.159180 
	C2094.366943,309.159180 2094.147217,309.379944 2094.015625,309.294922 
z"/>
<path fill="#7D7FB9" opacity="1.000000" stroke="none" 
	d="
M2093.061279,310.197021 
	C2092.967285,310.075806 2093.100830,309.922577 2093.145508,309.898895 
	C2093.189941,309.875214 2093.382080,310.113892 2093.382080,310.113892 
	C2093.382080,310.113892 2093.155273,310.318237 2093.061279,310.197021 
z"/>
<path fill="#7D7FB9" opacity="1.000000" stroke="none" 
	d="
M2097.670898,303.245392 
	C2097.489258,303.044922 2097.529053,302.681061 2097.823242,302.175262 
	C2098.015625,302.382874 2097.954102,302.732422 2097.670898,303.245392 
z"/>
<path fill="#FDFBFB" opacity="1.000000" stroke="none" 
	d="
M411.653870,167.215302 
	C483.468414,208.363403 554.956726,249.326630 627.260620,290.757202 
	C625.572205,291.965668 624.523804,292.861572 623.348450,293.536194 
	C585.081482,315.499725 546.807678,337.451355 508.523254,359.384399 
	C475.871704,378.090363 443.182373,396.730560 410.585846,415.531769 
	C407.600403,417.253723 405.456055,417.311432 402.414307,415.564636 
	C332.528870,375.431580 262.573425,335.420471 192.638458,295.373718 
	C190.536758,294.170227 188.514740,292.827606 185.533096,290.977448 
	C191.324356,287.544220 196.212692,284.557953 201.182205,281.713531 
	C267.792206,243.587723 334.424347,205.500549 401.002380,167.319031 
	C404.586914,165.263351 407.787170,163.859085 411.653870,167.215302 
M431.666992,386.183136 
	C453.839569,379.179810 469.987030,365.098297 481.532166,344.300873 
	C474.944611,342.625183 469.101196,341.359222 463.405762,339.611053 
	C459.730804,338.483032 457.575958,339.033295 455.064484,342.360260 
	C430.983185,374.261108 384.041901,376.358093 356.404327,347.501801 
	C331.228271,321.215576 331.684937,277.004456 347.455170,252.105560 
	C358.301788,234.980362 372.885468,222.948303 393.636688,220.530212 
	C421.061798,217.334412 442.964752,226.776718 458.372986,250.184982 
	C459.393372,251.735184 461.018005,253.924713 462.449982,253.994141 
	C470.207733,254.370331 477.993317,254.172577 486.219666,254.172577 
	C485.786041,252.619415 485.645386,251.657608 485.261353,250.805496 
	C460.830078,196.595749 403.372711,186.760712 364.637451,207.255066 
	C326.689087,227.333084 310.452759,260.404938 312.850647,303.173218 
	C315.594421,352.110199 362.910889,405.011536 431.666992,386.183136 
M394.924438,251.037811 
	C410.971924,247.839966 424.848145,251.887115 435.365112,264.520264 
	C440.071350,270.173523 445.195587,268.990295 451.304108,268.461487 
	C450.764832,267.009430 450.559418,266.051239 450.088959,265.248383 
	C436.396240,241.882217 406.792114,232.753952 382.192078,244.341385 
	C362.620056,253.560455 348.187500,276.292084 350.828888,301.931244 
	C353.732971,330.120361 376.366089,351.754333 404.398712,351.675629 
	C431.976837,351.598236 455.204285,329.668121 457.397797,301.811127 
	C457.642365,298.705505 456.882568,297.628021 453.717957,297.653320 
	C434.895203,297.803741 416.070892,297.896881 397.248260,297.796997 
	C393.588104,297.777588 392.205414,298.802612 392.280121,302.593262 
	C392.349548,306.116425 393.193848,307.598022 397.094299,307.537445 
	C411.252228,307.317535 425.415710,307.439606 439.576996,307.465210 
	C441.294403,307.468323 443.011475,307.669556 444.792358,307.783020 
	C440.045441,335.380676 406.573090,350.220337 383.414734,335.542145 
	C366.196716,324.628998 359.741058,308.374390 362.182434,288.815216 
	C364.567810,269.704620 375.623749,257.074036 394.924438,251.037811 
z"/>
<path fill="#F9F9FC" opacity="1.000000" stroke="none" 
	d="
M1451.311035,296.390320 
	C1448.014526,297.481354 1445.043457,298.903839 1442.015015,299.038513 
	C1434.052124,299.392578 1426.062378,299.092621 1418.087280,299.251587 
	C1415.088379,299.311340 1413.990845,298.315643 1414.048096,295.245544 
	C1414.205811,286.771973 1414.191650,278.291656 1414.038574,269.817749 
	C1413.984131,266.800354 1414.991333,265.692383 1418.049438,265.755463 
	C1426.688721,265.933777 1435.339966,265.678436 1443.973145,265.975342 
	C1451.868896,266.246918 1454.418579,268.672943 1454.822754,276.563293 
	C1455.165039,283.241058 1456.501709,290.248199 1451.311035,296.390320 
z"/>
<path fill="#FAFBFC" opacity="1.000000" stroke="none" 
	d="
M1793.504150,299.052643 
	C1784.893433,299.124237 1776.727661,299.022736 1768.571045,299.249451 
	C1765.371216,299.338409 1764.603882,298.083923 1764.649170,295.164490 
	C1764.781372,286.670013 1764.763916,278.171173 1764.651123,269.676117 
	C1764.615479,266.988953 1765.360718,265.712402 1768.292236,265.767487 
	C1776.952148,265.930206 1785.623901,265.682831 1794.275269,266.010223 
	C1802.333008,266.315063 1804.777222,268.969055 1805.264771,277.120148 
	C1805.453369,280.271667 1805.427490,283.452393 1805.252686,286.606110 
	C1804.776367,295.196198 1802.638428,297.477142 1793.504150,299.052643 
z"/>
<path fill="#FBFBFD" opacity="1.000000" stroke="none" 
	d="
M1853.715576,299.999817 
	C1853.803101,292.520538 1853.537476,285.514282 1854.067139,278.568665 
	C1854.737305,269.783234 1857.638672,266.721283 1866.405762,265.791473 
	C1872.810791,265.112152 1879.375122,264.867340 1885.773193,265.459381 
	C1893.814209,266.203491 1897.521851,270.113312 1897.770386,278.173492 
	C1898.175293,291.298920 1898.284180,304.463013 1897.740723,317.578613 
	C1897.326782,327.567871 1893.378174,331.286835 1883.463623,332.062378 
	C1877.368408,332.539154 1871.176514,332.351807 1865.067261,331.914276 
	C1858.787964,331.464569 1855.451538,328.609070 1854.719971,322.381866 
	C1853.870361,315.148315 1854.007080,307.798920 1853.715576,299.999817 
z"/>
<path fill="#FAFAFC" opacity="1.000000" stroke="none" 
	d="
M996.875854,328.961304 
	C985.931152,334.233734 974.880676,333.770508 964.121887,330.373199 
	C961.536926,329.556946 958.651611,324.891968 958.528381,321.889282 
	C957.909790,306.822205 957.792542,291.707520 958.273804,276.634338 
	C958.495239,269.698395 961.672729,266.780609 968.675720,266.047241 
	C975.894653,265.291229 983.273376,265.021118 990.493408,265.615906 
	C997.364441,266.182007 1000.838501,269.348602 1001.067566,276.108307 
	C1001.578247,291.175873 1001.250671,306.282440 1000.824341,321.360626 
	C1000.754089,323.847565 998.449707,326.271332 996.875854,328.961304 
z"/>
<path fill="#F5F6F9" opacity="1.000000" stroke="none" 
	d="
M1345.945190,273.029663 
	C1350.426880,286.952850 1354.803345,300.494415 1359.369019,314.621643 
	C1348.240967,314.621643 1337.881958,314.621643 1326.588501,314.621643 
	C1331.916138,298.020844 1337.141602,281.737976 1342.367188,265.455109 
	C1342.766357,265.426270 1343.165527,265.397430 1343.564697,265.368622 
	C1344.323120,267.795105 1345.081421,270.221588 1345.945190,273.029663 
z"/>
<path fill="#F9F9FC" opacity="1.000000" stroke="none" 
	d="
M2082.798340,284.832520 
	C2082.111084,296.982422 2079.198242,299.823029 2067.535400,299.962921 
	C2060.888184,300.042694 2054.234619,299.854156 2047.592651,300.059479 
	C2044.297485,300.161316 2042.765137,299.398987 2042.862427,295.694489 
	C2043.089111,287.057678 2043.021484,278.409149 2042.874390,269.768738 
	C2042.822754,266.731903 2043.891602,265.664917 2046.921387,265.735626 
	C2054.230957,265.906311 2061.549316,265.701141 2068.858887,265.868744 
	C2078.905029,266.099091 2081.772949,268.887054 2082.641846,278.906555 
	C2082.799316,280.723816 2082.759277,282.558289 2082.798340,284.832520 
z"/>
<path fill="#424497" opacity="1.000000" stroke="none" 
	d="
M431.284241,386.298218 
	C362.910889,405.011536 315.594421,352.110199 312.850647,303.173218 
	C310.452759,260.404938 326.689087,227.333084 364.637451,207.255066 
	C403.372711,186.760712 460.830078,196.595749 485.261353,250.805496 
	C485.645386,251.657608 485.786041,252.619415 486.219666,254.172577 
	C477.993317,254.172577 470.207733,254.370331 462.449982,253.994141 
	C461.018005,253.924713 459.393372,251.735184 458.372986,250.184982 
	C442.964752,226.776718 421.061798,217.334412 393.636688,220.530212 
	C372.885468,222.948303 358.301788,234.980362 347.455170,252.105560 
	C331.684937,277.004456 331.228271,321.215576 356.404327,347.501801 
	C384.041901,376.358093 430.983185,374.261108 455.064484,342.360260 
	C457.575958,339.033295 459.730804,338.483032 463.405762,339.611053 
	C469.101196,341.359222 474.944611,342.625183 481.532166,344.300873 
	C469.987030,365.098297 453.839569,379.179810 431.284241,386.298218 
z"/>
<path fill="#ED3A3F" opacity="1.000000" stroke="none" 
	d="
M394.512268,251.102402 
	C375.623749,257.074036 364.567810,269.704620 362.182434,288.815216 
	C359.741058,308.374390 366.196716,324.628998 383.414734,335.542145 
	C406.573090,350.220337 440.045441,335.380676 444.792358,307.783020 
	C443.011475,307.669556 441.294403,307.468323 439.576996,307.465210 
	C425.415710,307.439606 411.252228,307.317535 397.094299,307.537445 
	C393.193848,307.598022 392.349548,306.116425 392.280121,302.593262 
	C392.205414,298.802612 393.588104,297.777588 397.248260,297.796997 
	C416.070892,297.896881 434.895203,297.803741 453.717957,297.653320 
	C456.882568,297.628021 457.642365,298.705505 457.397797,301.811127 
	C455.204285,329.668121 431.976837,351.598236 404.398712,351.675629 
	C376.366089,351.754333 353.732971,330.120361 350.828888,301.931244 
	C348.187500,276.292084 362.620056,253.560455 382.192078,244.341385 
	C406.792114,232.753952 436.396240,241.882217 450.088959,265.248383 
	C450.559418,266.051239 450.764832,267.009430 451.304108,268.461487 
	C445.195587,268.990295 440.071350,270.173523 435.365112,264.520264 
	C424.848145,251.887115 410.971924,247.839966 394.512268,251.102402 
z"/>
</svg>