<svg version="1.1" id="Layer_1" xmlns="http://www.w3.org/2000/svg" xmlns:xlink="http://www.w3.org/1999/xlink" x="0px" y="0px"
	 width="100%" viewBox="0 0 588 331" enable-background="new 0 0 588 331" xml:space="preserve">
<path fill="#000000" opacity="1.000000" stroke="none" 
	d="
M247.240753,331.744385 
	C166.542343,332.000000 86.084656,331.976257 5.627135,332.079895 
	C2.115852,332.084412 0.881853,331.666779 0.887180,327.631622 
	C1.029040,220.188370 1.018963,112.744843 0.914478,5.301487 
	C0.911114,1.842688 1.441383,0.884069 5.194313,0.890515 
	C88.483582,1.033569 171.773163,1.000000 255.531342,1.000000 
	C258.624451,3.853667 255.962509,5.054694 254.232605,6.451443 
	C250.112442,9.778105 249.998001,10.854223 254.584076,13.571245 
	C265.605652,20.100954 276.678131,26.548611 287.927643,32.686783 
	C291.011749,34.369595 293.897034,34.414051 296.887787,32.598663 
	C307.416199,26.207918 318.371216,20.558153 328.913055,14.190363 
	C334.430359,10.857653 334.483429,9.855793 329.269806,5.894653 
	C327.759277,4.746999 326.108124,3.772427 327.759155,1.255116 
	C413.459747,1.000000 498.919556,1.022642 584.379150,0.919560 
	C587.901367,0.915312 589.117371,1.353590 589.112122,5.375208 
	C588.971252,112.824432 588.979431,220.273895 589.091248,327.723206 
	C589.094910,331.249939 588.464478,332.107758 584.780579,332.103546 
	C473.832947,331.976318 362.885101,332.000000 251.468658,332.000000 
	C249.229996,330.192474 249.834015,328.713287 251.705261,327.523956 
	C263.501495,320.026398 275.314728,312.551392 287.464050,305.636047 
	C290.428131,303.948853 293.501801,304.434052 296.456635,306.254608 
	C305.238708,311.665466 314.161469,316.845520 322.842743,322.423737 
	C326.637299,324.862000 330.522186,326.454498 334.859589,323.330780 
	C338.494934,320.712677 338.676483,319.119873 334.903290,316.710815 
	C328.730591,312.769714 322.207306,309.425079 315.789703,305.903015 
	C308.787689,302.060242 301.975525,297.885315 294.985596,294.016571 
	C291.744232,292.222565 288.829529,292.040619 285.599365,293.932190 
	C271.384247,302.256592 257.088165,310.445557 243.148834,319.229950 
	C239.082367,321.792603 239.289154,323.227417 243.471085,325.968414 
	C245.420456,327.246094 249.136642,327.498962 247.240753,331.744385 
z"/>
<path fill="#DF3337" opacity="1.000000" stroke="none" 
	d="
M247.399994,332.000000 
	C246.261719,330.010529 246.245560,330.041351 244.115860,328.924316 
	C240.671051,327.117462 235.214447,325.791565 234.840012,322.598145 
	C234.479691,319.525116 240.122818,318.273407 243.228348,316.397095 
	C257.787659,307.600586 272.402740,298.896423 286.978394,290.126892 
	C289.017822,288.899841 290.853119,288.863953 292.971313,290.075104 
	C308.720062,299.079681 324.488312,308.050934 340.310272,316.926086 
	C344.133850,319.070892 343.581757,320.585815 340.302399,322.753479 
	C329.602081,329.826385 329.689941,329.825134 318.803467,322.891937 
	C310.799042,317.794250 302.621399,312.968811 294.609375,307.882660 
	C292.312469,306.424591 290.207642,306.596680 288.136475,307.855713 
	C275.665771,315.436646 263.235535,323.084137 250.803848,330.729004 
	C250.551178,330.884399 250.444962,331.277893 250.635193,331.780151 
	C249.933334,332.000000 248.866653,332.000000 247.399994,332.000000 
z"/>
<path fill="#DE3338" opacity="1.000000" stroke="none" 
	d="
M327.600006,1.000000 
	C328.508972,4.559571 332.249542,4.262749 334.209534,6.130046 
	C335.589020,7.444333 338.442169,7.682751 338.555481,9.803265 
	C338.689880,12.318687 335.889069,12.776432 334.095245,13.828200 
	C322.216553,20.793020 310.328033,27.741247 298.470093,34.741241 
	C294.502869,37.083179 291.163361,37.899818 286.542664,34.967930 
	C273.935333,26.968517 260.816498,19.775366 247.901871,12.260111 
	C246.819229,11.630108 244.996384,11.434664 245.360016,9.736132 
	C245.623856,8.503734 246.799149,7.631135 248.095596,7.044760 
	C251.228195,5.627910 254.367386,4.180164 256.341064,1.241831 
	C257.388885,1.000000 258.777802,1.000000 260.583344,1.000000 
	C270.106293,4.328676 278.189484,9.550995 286.298950,14.714363 
	C290.041718,17.097450 293.677124,17.158686 297.553680,14.928979 
	C300.583496,13.186292 303.490936,11.260000 306.467255,9.440233 
	C311.848450,6.150038 317.262695,2.964853 323.741028,1.240566 
	C325.066681,1.000000 326.133331,1.000000 327.600006,1.000000 
z"/>
<path fill="#000000" opacity="1.000000" stroke="none" 
	d="
M323.531342,1.000000 
	C325.392700,3.055746 323.206879,2.838208 322.423492,3.299906 
	C313.556610,8.525786 304.590729,13.587024 295.803070,18.941336 
	C293.863068,20.123381 292.008636,20.633020 290.261230,19.674637 
	C279.987640,14.039952 269.742859,8.339898 260.624695,1.208158 
	C281.687561,1.000000 302.375122,1.000000 323.531342,1.000000 
z"/>
<path fill="#E03338" opacity="1.000000" stroke="none" 
	d="
M351.286011,90.810326 
	C366.009064,99.155602 380.405487,107.320633 394.827637,115.439964 
	C406.978546,122.280647 419.175873,129.038879 431.322723,135.886749 
	C446.757141,144.587967 462.116638,153.423340 477.607605,162.022186 
	C481.880615,164.394073 478.080963,165.545990 476.960205,166.209473 
	C470.603271,169.972687 464.016235,173.344208 457.604858,177.018967 
	C443.100433,185.332321 428.681122,193.794312 414.173859,202.102631 
	C400.787994,209.768692 387.310425,217.274414 373.913666,224.921585 
	C359.383392,233.215759 344.908600,241.607040 330.393250,249.927429 
	C318.016449,257.021973 305.587036,264.025391 293.254913,271.196411 
	C291.123047,272.436066 289.643951,272.217316 287.563202,271.013550 
	C269.534302,260.583466 251.396957,250.341187 233.334290,239.969147 
	C214.565231,229.191467 195.878418,218.270309 177.089020,207.528458 
	C163.567947,199.798477 149.909439,192.309296 136.364761,184.620163 
	C125.377388,178.382782 114.495430,171.959702 103.506691,165.724777 
	C100.468628,164.001007 101.071831,163.217941 103.752579,161.720734 
	C130.808701,146.609802 157.804306,131.390488 184.810837,116.190796 
	C211.368927,101.243484 237.919968,86.283623 264.474152,71.329353 
	C272.182007,66.988586 279.926239,62.710407 287.574646,58.267265 
	C289.700897,57.032101 291.464813,57.182850 293.494324,58.330826 
	C308.903259,67.046715 324.337738,75.717476 339.770020,84.392044 
	C343.492462,86.484467 347.236481,88.538567 351.286011,90.810326 
z"/>
<path fill="#DF3237" opacity="1.000000" stroke="none" 
	d="
M349.246796,254.322388 
	C378.521637,237.461014 407.515869,220.837967 436.533325,204.255630 
	C455.753601,193.271988 475.034241,182.393372 494.200012,171.315781 
	C495.927551,170.317261 496.882080,170.190201 498.570251,171.209747 
	C514.295593,180.707047 530.107910,190.060349 545.845215,199.538132 
	C548.941711,201.403015 549.047180,202.642914 545.595520,205.186447 
	C537.961121,210.812286 531.373291,211.713654 523.194946,205.741989 
	C515.154114,199.870743 505.927277,195.638580 497.323242,190.515305 
	C494.574524,188.878601 492.329620,188.944733 489.581543,190.551971 
	C465.073883,204.885300 440.519592,219.139191 415.943726,233.355377 
	C398.289032,243.567917 380.582886,253.691483 362.894440,263.845642 
	C355.631561,268.014954 348.352478,272.156158 341.085632,276.318604 
	C338.005554,278.082886 336.877472,279.420227 341.015991,281.765320 
	C351.271851,287.576721 361.171234,294.017273 371.427032,299.828857 
	C374.715332,301.692139 373.693665,303.028198 371.708557,304.423920 
	C369.298370,306.118500 366.562134,307.342499 364.018280,308.856262 
	C362.281494,309.889771 360.678070,309.877136 358.917572,308.883636 
	C342.351471,299.534698 325.769348,290.214203 309.183380,280.900513 
	C306.868652,279.600677 306.799561,278.437531 309.172180,277.099243 
	C322.450073,269.609772 335.710022,262.088470 349.246796,254.322388 
z"/>
<path fill="#DF3337" opacity="1.000000" stroke="none" 
	d="
M120.947510,196.118958 
	C144.313858,209.755646 167.271957,223.382736 190.343033,236.815796 
	C212.302856,249.601807 234.382629,262.181763 256.404724,274.860870 
	C260.518280,277.229248 264.538544,279.770630 268.731750,281.986298 
	C272.102753,283.767487 271.324738,285.143433 268.678223,286.680389 
	C259.306030,292.123322 249.984955,297.656769 240.544952,302.979370 
	C235.255264,305.961853 229.855270,308.729279 224.936676,312.335876 
	C221.409149,314.922485 218.326935,315.001648 214.348297,312.138397 
	C205.283798,305.615143 205.137589,306.050018 214.712418,300.734467 
	C223.151581,296.049347 231.360550,290.951141 239.760086,286.192291 
	C243.263519,284.207397 242.181839,283.136169 239.442596,281.611969 
	C213.899261,267.398926 188.257111,253.355637 162.915756,238.789673 
	C138.903229,224.987518 115.074394,210.848862 91.502258,196.311005 
	C86.481377,193.214417 83.128349,193.860626 78.746857,196.535172 
	C69.239372,202.338776 59.479111,207.727631 49.955460,213.505692 
	C46.069221,215.863480 42.750931,215.763412 39.382153,212.785294 
	C38.031483,211.591263 36.619873,210.417191 35.078369,209.498520 
	C32.143169,207.749298 32.150352,206.307037 35.119785,204.594772 
	C45.468685,198.627289 55.759445,192.558990 66.104698,186.585114 
	C71.498100,183.470688 76.930107,180.419754 82.405930,177.453217 
	C84.276657,176.439758 86.211052,175.585892 88.473602,176.945236 
	C99.146912,183.357788 109.878098,189.673996 120.947510,196.118958 
z"/>
<path fill="#E03338" opacity="1.000000" stroke="none" 
	d="
M242.575653,28.368382 
	C251.794006,34.728939 261.260590,39.967651 270.590027,45.432850 
	C271.693665,46.079361 273.497223,46.172527 273.629974,47.689117 
	C273.780823,49.412621 271.839050,49.262695 270.804169,49.854179 
	C246.438644,63.780609 221.945831,77.487808 197.696701,91.613480 
	C171.062439,107.128532 143.861725,121.649506 117.493332,137.631485 
	C107.816010,143.496948 97.816505,148.832504 87.934959,154.357910 
	C86.041245,155.416824 84.107140,155.006760 82.277695,153.964508 
	C70.004539,146.972260 57.779278,139.893417 45.424641,133.048141 
	C41.286865,130.755539 41.750603,129.132095 45.480587,127.161537 
	C46.635559,126.551369 47.734798,125.777313 48.723354,124.921043 
	C52.271767,121.847504 55.553844,121.451706 59.765038,124.311028 
	C65.846962,128.440536 72.512466,131.699722 78.785629,135.563019 
	C81.861099,137.457031 84.533699,137.735428 87.752449,135.863754 
	C100.073036,128.699387 112.488136,121.697243 124.881210,114.657883 
	C137.262375,107.625282 149.677307,100.651939 162.045303,93.596306 
	C180.837082,82.876099 199.583115,72.075668 218.386887,61.376610 
	C224.808273,57.722946 231.365280,54.308464 237.821762,50.715416 
	C242.059296,48.357212 242.090088,47.633793 237.781235,44.893959 
	C231.424545,40.851978 225.038666,36.844189 218.517578,33.077438 
	C215.241547,31.185118 213.559601,29.865089 217.127029,26.356066 
	C225.008255,18.603870 226.271255,18.225668 235.820694,24.613123 
	C237.898880,26.003180 240.067734,27.072098 242.575653,28.368382 
z"/>
<path fill="#E03338" opacity="1.000000" stroke="none" 
	d="
M384.320068,73.779144 
	C401.560822,83.673096 418.494141,93.356552 435.421173,103.050911 
	C448.220673,110.381378 461.009705,117.730072 473.808289,125.062157 
	C480.342682,128.805603 487.015625,132.328506 493.370880,136.353775 
	C496.287354,138.201035 498.489166,137.655914 500.995361,136.084656 
	C509.450409,130.783783 518.053955,125.704750 526.322632,120.128517 
	C529.930115,117.695732 532.707947,117.440659 536.346130,119.928719 
	C546.343689,126.765900 546.430298,126.658592 535.969788,132.859482 
	C524.699158,139.540573 513.436584,146.235641 502.120636,152.839172 
	C499.745514,154.225204 497.575317,154.890594 494.498657,153.207458 
	C473.802979,141.885529 453.392944,130.067139 432.909058,118.375061 
	C419.090942,110.487747 405.160309,102.797852 391.315094,94.957672 
	C372.060577,84.054390 352.854858,73.064934 333.596008,62.169350 
	C324.893341,57.245869 316.112946,52.459736 306.873688,47.337334 
	C312.259430,42.729832 318.337463,39.993950 324.013306,36.702366 
	C333.510437,31.194677 343.331696,26.239044 352.744690,20.597506 
	C355.370392,19.023838 357.247986,19.046625 359.509674,20.388882 
	C362.051697,21.897501 364.491211,23.578821 367.033173,25.087492 
	C370.083069,26.897602 369.687317,28.320553 366.820862,29.953018 
	C358.704041,34.575607 350.616394,39.252567 342.598663,44.044304 
	C340.222321,45.464516 336.742065,46.409115 342.301636,49.398708 
	C356.447235,57.005314 370.137421,65.458809 384.320068,73.779144 
z"/>
<path fill="#DF3237" opacity="1.000000" stroke="none" 
	d="
M552.270996,155.191132 
	C547.801941,157.742905 543.665527,160.130447 539.479370,162.427200 
	C536.612854,163.999924 536.223267,165.156296 539.449158,167.015457 
	C550.100891,173.154526 560.560242,179.627853 571.221069,185.750702 
	C574.935486,187.884018 574.848450,188.967392 571.289185,191.317413 
	C568.097900,193.424484 564.652405,194.936218 561.268677,196.446457 
	C556.714966,198.478897 553.514587,194.277023 550.212524,192.331696 
	C536.249573,184.105789 522.607300,175.335648 508.842804,166.772568 
	C506.397095,165.251068 505.979034,164.275970 508.982513,162.520813 
	C524.400879,153.510803 539.691589,144.281540 554.993713,135.073822 
	C557.465698,133.586380 559.487244,133.384186 561.914490,135.409698 
	C564.279053,137.382843 567.116272,138.798141 569.779541,140.402603 
	C572.617493,142.112289 572.654541,143.823288 569.782349,145.442169 
	C564.070251,148.661728 558.318054,151.810303 552.270996,155.191132 
z"/>
<path fill="#DE3338" opacity="1.000000" stroke="none" 
	d="
M48.892494,178.865845 
	C39.296371,184.300598 29.945036,189.438263 20.839767,194.980209 
	C17.274277,197.150375 13.757038,197.941177 10.609838,195.458984 
	C8.325534,193.657364 3.652362,194.452850 3.682775,190.949997 
	C3.709244,187.901230 7.734070,187.029617 10.166116,185.490265 
	C19.708126,179.450714 29.332485,173.540939 38.943748,167.611313 
	C42.008442,165.720566 43.011593,164.270157 38.876366,162.176788 
	C31.270737,158.326584 23.910574,153.994644 16.373703,150.004013 
	C13.146428,148.295258 13.448856,147.439102 16.086971,144.930130 
	C21.712387,139.580109 26.604641,138.614868 33.595242,143.117264 
	C44.457802,150.113449 56.109657,155.878250 67.368233,162.268448 
	C71.738548,164.748978 71.617569,165.657532 67.094833,168.286453 
	C61.132641,171.752060 55.187939,175.247757 48.892494,178.865845 
z"/>
<path fill="#000000" opacity="1.000000" stroke="none" 
	d="
M147.925156,174.125626 
	C143.785370,171.732498 140.092758,169.271164 136.189682,167.208023 
	C133.448898,165.759277 134.014847,164.946808 136.214996,163.697479 
	C150.199478,155.756744 164.188293,147.822830 178.120316,139.790634 
	C196.726425,129.063721 215.255997,118.203964 233.868652,107.488472 
	C246.497482,100.217926 259.212585,93.097198 271.889099,85.909531 
	C277.026855,82.996384 282.190735,80.128052 287.291962,77.152283 
	C290.026520,75.557083 292.446808,75.877983 295.134552,77.445503 
	C314.095581,88.503853 333.157440,99.389496 352.103882,110.472557 
	C370.510529,121.239876 389.236694,131.447281 407.462311,142.538284 
	C418.534027,149.275848 430.038330,155.306671 441.405426,161.550964 
	C443.569702,162.739868 445.677429,163.953461 447.712494,165.696106 
	C428.487671,176.652740 409.246582,187.539062 390.085144,198.563721 
	C374.039581,207.795639 358.118347,217.243546 342.084534,226.496078 
	C325.768219,235.911636 309.381073,245.204330 293.026398,254.553375 
	C290.762665,255.847412 288.850281,254.655746 287.001556,253.607437 
	C273.736298,246.085358 260.483917,238.540390 247.251572,230.960571 
	C230.891129,221.588882 214.561707,212.163071 198.204651,202.785477 
	C181.572906,193.250443 164.923889,183.745590 147.925156,174.125626 
z"/>
<path fill="#3B3D8D" opacity="1.000000" stroke="none" 
	d="
M295.739349,98.797836 
	C314.153748,100.843842 328.602295,109.049126 339.599884,123.444511 
	C342.427765,127.146095 344.538116,131.242233 346.622589,135.374207 
	C348.055176,138.213928 347.531921,139.849289 344.128357,139.872711 
	C340.298309,139.899063 336.466858,139.770279 332.637451,139.820007 
	C329.381744,139.862244 328.255798,137.352081 326.743652,135.220535 
	C320.340546,126.194740 312.399323,119.346931 301.349182,116.515305 
	C275.882324,109.989403 253.999924,122.049263 245.141296,145.062210 
	C237.226929,165.622162 238.970718,185.823166 253.169113,203.489838 
	C260.019226,212.013245 269.160583,217.337509 280.459259,219.245300 
	C293.489349,221.445435 304.934296,218.552139 315.621826,211.383972 
	C319.508636,208.777023 322.678009,205.364517 325.473846,201.647568 
	C326.919800,199.725266 328.103668,198.719040 330.816559,199.815659 
	C333.989288,201.098206 337.566223,201.341766 340.856598,202.386292 
	C343.051788,203.083160 344.469086,204.006058 342.471191,207.028091 
	C331.113922,224.207458 315.789734,233.994568 294.885925,235.891312 
	C274.169617,237.771042 256.784790,231.395325 242.709641,216.823364 
	C231.863098,205.593964 225.316742,192.083313 223.778320,175.894424 
	C222.075073,157.971176 225.297531,141.718994 235.634232,127.111748 
	C247.262573,110.679207 263.195160,101.027267 283.666443,98.381012 
	C287.810272,98.818199 291.603394,98.296593 295.739349,98.797836 
z"/>
<path fill="#D6353B" opacity="1.000000" stroke="none" 
	d="
M264.133179,186.767868 
	C272.286224,201.316895 294.225525,206.283157 307.738708,194.084564 
	C311.671844,190.534058 314.410889,186.544388 316.555847,181.968048 
	C317.776367,179.364014 318.446899,177.450211 313.681183,177.745026 
	C304.060852,178.340164 294.377319,177.979477 284.721100,177.885590 
	C282.079132,177.859894 279.914398,177.143814 280.026794,173.587830 
	C280.106018,171.082001 280.721497,170.028458 283.393402,170.046631 
	C296.881592,170.138474 310.370758,170.094666 323.859558,170.085159 
	C326.669861,170.083176 327.517487,170.620728 327.156128,174.130127 
	C325.292938,192.224075 312.119324,205.467377 295.903473,208.568726 
	C283.403076,210.959488 271.739685,207.660812 262.164825,197.825684 
	C254.268005,189.714218 250.500687,179.968445 250.326935,169.456329 
	C250.041092,152.162262 260.552490,132.300919 283.642426,128.794266 
	C300.793213,126.189598 313.897675,134.902283 321.648102,146.240341 
	C323.557159,149.033142 323.055511,149.956406 319.736664,149.928528 
	C316.277130,149.899460 313.442474,149.813278 310.807709,146.437515 
	C302.777924,136.149536 288.505798,135.268280 279.345184,138.235764 
	C266.043396,142.544754 258.594482,157.094910 258.881592,167.782898 
	C259.062469,174.517609 260.295898,180.767715 264.133179,186.767868 
z"/>
<path fill="#52527E" opacity="1.000000" stroke="none" 
	d="
M295.874146,98.669220 
	C292.335938,98.873322 288.569702,98.705452 284.424103,98.400826 
	C287.912933,97.900139 291.780426,97.793724 295.874146,98.669220 
z"/>
</svg>